<svg width="60" height="60" viewBox="0 0 60 60" fill="none" xmlns="http://www.w3.org/2000/svg">
<path d="M6.53644 13.7196C5.82931 12.8711 4.56818 12.7564 3.71963 13.4636C2.87108 14.1707 2.75643 15.4318 3.46356 16.2804L6.53644 13.7196ZM30 45L28.4636 46.2804C28.8435 46.7364 29.4064 47 30 47C30.5936 47 31.1565 46.7364 31.5364 46.2804L30 45ZM56.5364 16.2804C57.2436 15.4318 57.1289 14.1707 56.2804 13.4636C55.4318 12.7564 54.1707 12.8711 53.4636 13.7196L56.5364 16.2804ZM3.46356 16.2804L28.4636 46.2804L31.5364 43.7196L6.53644 13.7196L3.46356 16.2804ZM31.5364 46.2804L56.5364 16.2804L53.4636 13.7196L28.4636 43.7196L31.5364 46.2804Z" fill="black"/>
</svg>
