<?xml version="1.0" encoding="UTF-8"?><svg id="a" xmlns="http://www.w3.org/2000/svg" viewBox="0 0 3333 2000"><defs><style>.b{fill:#f7c73e;}.c{fill:#0071bc;}</style></defs><path class="b" d="M2081.69,1102h-2.09c-137.51,0-332.55-62.05-558.39-133.84-345.39-109.79-775.23-246.38-1162.36-203.87-259.15,28.46-437.36,110.34-529.69,243.32l-.82-.56c50.72-73.05,127.96-131.24,229.59-172.97,83.17-34.15,184.37-57.95,300.81-70.73,172.46-18.94,367.03-4.5,594.81,44.12,198.31,42.34,394.7,104.77,567.96,159.84,225.76,71.77,420.73,133.74,558.08,133.91,256.61,.28,508.09-55.46,751.28-109.38,53.61-11.89,109.04-24.18,163.77-35.71,116.45-24.53,241.25-46.42,364.9-40.6,94.97,4.48,187.34,28.78,273,54.37l-.29,.96c-85.61-25.58-177.9-49.86-272.76-54.33-123.54-5.82-248.27,16.06-364.65,40.58-54.72,11.53-110.15,23.82-163.76,35.71-121.77,27-247.68,54.8-372.45,75.32-139,22.85-262.34,33.85-376.95,33.85Z"/><path class="b" d="M2061.47,1086.96c-150.96,0-354.02-56.43-587.76-121.39-154.78-43.02-314.84-87.5-480.87-121.76-245.63-50.68-454.58-66.93-638.79-49.67-7.3,.69-14.64,1.42-21.82,2.18-249.98,26.64-417.64,95.98-512.56,211.98l-.77-.63c51.65-63.12,127.07-113.45,224.17-149.61,80.83-30.1,175.38-50.61,289.06-62.73,7.18-.76,14.53-1.5,21.83-2.19,184.31-17.27,393.36-1.02,639.09,49.69,166.07,34.27,326.14,78.75,480.94,121.77,242.8,67.48,452.51,125.75,604.92,121.1,222.5-6.8,435.96-48.7,633.5-92.98l13.8-3.12c92.13-20.81,179.15-40.47,267.81-57.84,99.97-19.58,231.79-40.83,364.93-31.22,92.79,6.72,182,30.95,272.83,57.31l-.28,.96c-90.77-26.35-179.93-50.56-272.62-57.27-133.03-9.6-264.76,11.63-364.67,31.21-88.65,17.37-175.66,37.02-267.79,57.83l-13.8,3.12c-197.59,44.29-411.11,86.2-633.69,93-5.74,.17-11.57,.26-17.46,.26Z"/><path class="b" d="M2035.19,1072.43c-68.85,0-150.52-8.95-252.72-27.53-110.92-20.17-232.29-49.18-360.79-79.89-139.77-33.41-284.3-67.95-431.91-95.23-245.12-45.29-454.64-60.29-640.54-45.85-7.29,.57-14.65,1.19-21.87,1.83-249.59,22.37-418.76,82.3-517.2,183.21l-.72-.7c28.24-28.95,62.79-54.9,102.67-77.12,36.71-20.45,79.07-38.37,125.9-53.24,80.32-25.52,174.94-42.9,289.26-53.15,7.22-.64,14.58-1.26,21.88-1.83,185.99-14.45,395.59,.55,640.8,45.86,147.63,27.28,292.17,61.83,431.96,95.24,261.29,62.45,486.95,116.39,656.29,106.14,229.18-13.87,448.53-59.51,632.88-102.33,84.8-19.96,184.66-42.75,282.3-60.45,140.58-25.49,256.55-32.43,364.96-21.85,90.55,8.89,176.34,33.09,267.17,58.71l5.48,1.54-.27,.96-5.48-1.55c-90.79-25.61-176.54-49.79-267-58.67-108.32-10.57-224.2-3.63-364.68,21.83-97.62,17.7-197.46,40.49-282.25,60.44-184.39,42.83-403.8,88.48-633.05,102.35-13.8,.83-28.14,1.26-43.07,1.26Z"/><path class="b" d="M1999.82,1058.88c-178.36,0-401.73-44.96-636.43-92.21-122.49-24.66-249.14-50.15-376.67-70.93-244.72-39.87-454.81-53.62-642.29-42.02-7.33,.46-14.7,.95-21.92,1.47-159.38,11.59-386.87,40.21-521.85,154.44l-.65-.76c57.41-48.59,133.62-84.93,232.96-111.1,79.42-20.93,174.11-35.18,289.47-43.57,7.22-.52,14.6-1.02,21.93-1.47,187.55-11.59,397.72,2.15,642.51,42.03,127.55,20.78,254.22,46.28,376.71,70.93,270.14,54.38,525.29,105.73,713.92,88.95,236-21,461.86-70.72,632.26-111.68,111.69-27.32,201.61-46.37,282.99-59.95,133.37-22.25,252.76-26.33,364.99-12.47,80.17,9.96,156.76,31.18,237.86,53.64,11.49,3.18,23.02,6.38,34.62,9.55l-.26,.96c-11.6-3.18-23.13-6.37-34.62-9.55-81.06-22.45-157.62-43.66-237.71-53.61-112.14-13.85-231.43-9.77-364.7,12.46-81.36,13.58-171.26,32.62-282.92,59.93-170.44,40.97-396.34,90.7-632.41,111.71-24.81,2.21-50.79,3.24-77.77,3.24Z"/><path class="b" d="M1947.81,1046.96c-189.46,0-415.31-37.26-651.77-76.26-102-16.83-207.48-34.23-312.39-48.99-244.53-34.41-455.19-46.91-644.03-38.2-7.25,.34-14.64,.72-21.97,1.12-173.69,9.7-390.51,32.74-526.51,125.66l-.56-.82c59.78-40.84,137.41-70.88,237.35-91.85,78.92-16.56,170.97-27.36,289.67-33.98,7.33-.4,14.73-.78,21.98-1.12,188.9-8.71,399.63,3.79,644.22,38.21,104.92,14.76,210.41,32.17,312.42,48.99,292.82,48.31,569.41,93.93,780.6,69.41,189.85-22.05,390.56-60.51,631.64-121.04,111.94-28.11,202.08-46.99,283.68-59.44,128.59-19.62,248-20.63,365.02-3.09,70.56,10.64,138.38,29.37,210.19,49.2,20.24,5.59,41.18,11.37,62.11,16.94l-.26,.97c-20.94-5.57-41.88-11.35-62.12-16.94-71.78-19.82-139.57-38.54-210.07-49.17-116.92-17.52-236.23-16.51-364.72,3.09-81.57,12.44-171.68,31.33-283.59,59.42-241.12,60.54-441.87,99.01-631.76,121.06-40.72,4.73-83.89,6.85-129.11,6.85Z"/><path class="b" d="M1873.65,1037.41c-197.86,0-423.5-29.44-658.74-60.13-76.76-10.02-156.13-20.37-234.33-29.61-244.73-28.92-455.97-40.16-645.78-34.38-7.41,.23-14.82,.49-22.02,.76-195.93,7.63-395.89,24.65-531.17,96.89l-.47-.88c135.47-72.33,335.56-89.37,531.61-97,7.2-.27,14.62-.53,22.03-.76,189.86-5.79,401.15,5.46,645.93,34.38,78.2,9.24,157.58,19.6,234.34,29.61,320.09,41.76,622.43,81.21,861.06,47.3,191.3-27.19,397.71-69.84,631.01-130.39,110.31-28.63,200.67-47.35,284.37-58.94,126.04-17.44,242.04-15.44,365.05,6.28,61.62,10.95,121.12,27.55,184.11,45.14,28.57,7.97,58.12,16.22,88.02,23.94l-.25,.97c-29.91-7.72-59.46-15.97-88.04-23.94-62.97-17.57-122.44-34.17-184.01-45.11-122.91-21.71-238.8-23.7-364.74-6.28-83.66,11.58-173.99,30.3-284.26,58.91-233.34,60.56-439.78,103.21-631.12,130.41-63.33,9-131.16,12.84-202.59,12.84Z"/><path class="b" d="M1766.57,1031.15c-46.24,0-94.99-1.11-146.48-3.33-163.66-7.06-339.12-24.38-508.8-41.14-43.89-4.33-89.28-8.82-133.76-13.05-245.83-23.4-457.64-33.4-647.53-30.55-7.35,.12-14.71,.25-22.07,.41-203.24,4.49-397.16,13.08-535.84,68.11l-.37-.93c138.83-55.08,332.85-63.68,536.19-68.18,7.36-.15,14.72-.29,22.08-.41,189.93-2.85,401.78,7.15,647.64,30.56,44.49,4.24,89.87,8.72,133.77,13.05,339.28,33.5,690.12,68.15,964.03,22.37,194.51-32.51,400.71-78.22,630.39-139.74,107.8-28.88,201.05-47.99,285.06-58.43,122.18-15.18,238.19-10.21,365.08,15.66,53.29,10.93,104.91,25.67,159.55,41.27,36.31,10.37,73.86,21.09,112.39,30.74l-.24,.97c-38.55-9.65-76.11-20.38-112.43-30.75-54.63-15.6-106.23-30.33-159.48-41.25-126.78-25.85-242.69-30.82-364.76-15.65-83.97,10.44-177.17,29.54-284.93,58.4-229.71,61.53-435.94,107.24-630.48,139.76-88.45,14.79-190.41,22.11-309,22.11Z"/><path class="b" d="M1610.92,1030.34c-21.01,0-42.39-.16-64.22-.48-189.78-2.79-392.98-17.38-572.25-30.27-249.32-17.91-461.7-26.66-649.28-26.73-7.37,0-14.75,.02-22.12,.05-10.38,.05-20.74,.1-31.09,.15-190.76,.9-370.94,1.74-509.42,39.17l-.26-.97c138.6-37.46,318.85-38.31,509.67-39.2,10.35-.05,20.72-.1,31.09-.15,7.38-.03,14.75-.05,22.13-.05,187.6,.07,400.01,8.81,649.35,26.73,381.85,27.43,776.71,55.8,1100.18-6.07,196.55-37.6,402.55-86.37,629.77-149.09,107.18-29.59,200.66-48.54,285.75-57.93,120.4-13.28,233-5.56,365.11,25.04,45.52,10.6,89.71,23.65,136.49,37.46,43.47,12.84,88.42,26.11,135.28,37.49l-.24,.97c-46.88-11.39-91.84-24.67-135.33-37.51-46.77-13.81-90.94-26.85-136.44-37.44-131.99-30.57-244.5-38.28-364.78-25.02-85.04,9.38-178.46,28.32-285.6,57.9-227.25,62.73-433.27,111.51-629.84,149.11-129.22,24.72-281.52,36.83-463.98,36.83Z"/><path class="b" d="M1392.31,1037.22c-153.99,0-301.78-5.95-420.91-11.67-182.82-8.78-422.03-19.32-651.03-22.9-7.39-.11-14.78-.21-22.17-.3-40.01-.46-80.2-1.26-119.07-2.03-156.73-3.11-304.77-6.04-426.11,12.56l-.15-.99c121.43-18.62,269.51-15.68,426.28-12.57,38.87,.77,79.06,1.57,119.06,2.03,7.39,.09,14.78,.2,22.18,.3,229.01,3.58,468.23,14.12,651.06,22.9,355.98,17.1,765.35,24.82,1102.57-47.56,196.89-42.26,402.68-94.09,629.14-158.45,106.8-30.35,200.5-49.13,286.44-57.42,118.96-11.47,228.16-1.18,365.14,34.41,38.29,9.99,75.5,21.46,114.9,33.59,50.06,15.42,101.82,31.37,156.7,44.3l-.23,.97c-54.91-12.94-106.69-28.89-156.77-44.31-39.39-12.13-76.59-23.59-114.85-33.58-136.86-35.56-245.96-45.84-364.8-34.39-85.88,8.28-179.52,27.05-286.27,57.39-226.48,64.36-432.3,116.19-629.21,158.46-152.91,32.82-328.55,51.58-536.95,57.34-48.47,1.34-97.02,1.92-144.96,1.92Z"/><path class="b" d="M1142.27,1053.65c-56.28,0-114.18-.71-173.94-2.13-172.6-4.1-350.74-9.66-523.02-15.04-43.46-1.36-86.75-2.71-129.75-4.03l-22.22-.66c-73.3-2.08-145.71-6.04-215.74-9.88-120.57-6.61-234.46-12.85-334.11-8.39l-.04-1c99.71-4.46,213.62,1.78,334.21,8.39,70.02,3.84,142.43,7.81,215.71,9.88l22.22,.66c43.01,1.32,86.3,2.67,129.76,4.03,172.28,5.38,350.42,10.95,523.01,15.05,446.36,10.6,807.8-18.53,1104.96-89.05,194.37-46.13,399.96-101.02,628.52-167.8,106.59-31.14,200.51-49.76,287.13-56.91,64.56-5.33,127.28-3.59,191.74,5.32,52.57,7.27,107.68,19.49,173.44,38.47,31.55,9.14,62.24,19.08,94.74,29.6,56.08,18.16,114.08,36.93,176.68,51.23l-.22,.98c-62.65-14.31-120.67-33.09-176.77-51.26-32.48-10.52-63.17-20.45-94.71-29.59-103.39-29.83-219.15-55.78-364.81-43.75-86.55,7.15-180.41,25.75-286.93,56.88-228.57,66.78-434.18,121.68-628.57,167.81-160.09,37.99-343.68,64.41-545.67,78.52-121.51,8.49-248.81,12.69-385.61,12.69Z"/><path class="b" d="M952.52,1077.49c-204.67,0-420.49-5.13-641.77-15.26-7.43-.33-14.85-.67-22.27-1.01-110.22-4.97-216.78-15.88-319.83-26.43-83.08-8.5-161.55-16.54-234.68-20.65l.06-1c73.16,4.11,151.64,12.14,234.73,20.65,103.04,10.55,209.59,21.46,319.78,26.42,7.42,.34,14.85,.68,22.27,1.01,225.86,10.34,446.05,15.48,654.48,15.25,276.72-.29,693.46-23.17,1107.35-130.54,186.52-48.39,391.9-106.33,627.89-177.15,106.5-31.96,200.64-50.41,287.82-56.41,135.02-9.28,243.64,14.54,365.2,53.17,25.31,8.07,51.07,16.89,75.99,25.42,61.56,21.07,125.22,42.85,195.25,58.35l-.22,.98c-70.09-15.51-133.77-37.31-195.36-58.38-24.91-8.53-50.68-17.34-75.97-25.41-121.45-38.6-229.98-62.4-364.83-53.12-87.1,5.99-181.18,24.43-287.6,56.37-236,70.82-441.4,128.77-627.93,177.16-170.27,44.17-356.78,77.78-554.35,99.89-180.2,20.17-366.34,30.49-553.25,30.69-4.24,0-8.51,0-12.76,0Z"/><path class="b" d="M766.9,1106c-153.07,0-307.41-4.68-460.96-13.99-7.44-.45-14.89-.9-22.33-1.37-149.43-9.24-290.76-32.43-427.45-54.85-45.83-7.52-89.13-14.62-131.73-21.03l.15-.99c42.62,6.41,85.91,13.51,131.75,21.03,136.66,22.42,277.96,45.61,427.35,54.84,7.44,.47,14.88,.92,22.32,1.37,219.12,13.3,439.89,17.14,656.19,11.43,354.05-9.35,748.17-70.45,1109.74-172.03,201.18-56.52,403.1-117.91,627.27-186.51,105.71-32.75,200.08-51.04,288.51-55.9,65.38-3.6,128.86,.91,194.09,13.79,63,12.44,121.87,31.63,171.15,48.75,19.53,6.81,39.41,14.03,58.64,21.02,66.5,24.16,135.26,49.15,212.43,65.69l-.21,.98c-77.23-16.56-146.03-41.55-212.56-65.73-19.23-6.99-39.11-14.21-58.63-21.01-103.78-36.07-217.43-70.61-364.85-62.49-88.35,4.86-182.64,23.14-288.27,55.86-224.17,68.6-426.1,129.99-627.29,186.51-361.65,101.61-755.85,162.72-1109.98,172.07-64.75,1.71-129.92,2.56-195.31,2.56Z"/><path class="b" d="M690.2,1136.41c-129.91,0-260-4.88-389.07-14.62-7.46-.56-14.92-1.13-22.38-1.72-187.61-14.74-362.33-56.52-531.29-96.92-10.9-2.61-21.75-5.2-32.55-7.77l.23-.97c10.79,2.57,21.64,5.17,32.55,7.77,168.93,40.39,343.61,82.16,531.14,96.89,7.45,.59,14.91,1.16,22.37,1.72,218.33,16.48,439.68,19.03,657.89,7.6,320.63-16.8,705.2-90.63,1112.13-213.53,152.91-46.18,309.24-95.61,460.43-143.41,54.61-17.27,111.08-35.12,166.21-52.45,106.04-33.61,200.64-51.74,289.2-55.4,145.62-6.02,255.88,30.59,365.26,71.92,14.2,5.38,28.66,10.97,42.64,16.38,70.92,27.45,144.26,55.83,228.25,73.26l-.2,.98c-84.07-17.45-157.45-45.84-228.41-73.31-13.98-5.41-28.44-11.01-42.64-16.38-109.29-41.3-219.44-77.88-364.87-71.86-88.47,3.66-182.98,21.76-288.94,55.35-55.13,17.33-111.6,35.18-166.21,52.45-151.19,47.8-307.53,97.24-460.44,143.42-407.01,122.92-791.66,196.77-1112.37,213.57-89.25,4.67-179.07,7.01-268.95,7.01Z"/><path class="b" d="M649.06,1167.42c-117.72,0-235.6-5.28-352.74-15.84-7.48-.67-14.96-1.37-22.43-2.08-199.89-19.04-390.44-76.4-568.49-133.5l.31-.95c178,57.09,368.49,114.43,568.28,133.46,7.47,.71,14.94,1.41,22.42,2.08,219.25,19.76,441.18,21.03,659.6,3.78,288.75-22.81,653.31-106.23,1114.53-255.02,104.13-33.59,210.7-68.8,313.76-102.85,102.74-33.95,208.98-69.05,312.25-102.36,106.43-34.49,201.26-52.44,289.89-54.89,144.14-3.98,250.72,34.46,365.3,81.3,9.32,3.81,18.63,7.66,27.97,11.52,74.85,30.92,152.25,62.89,242.75,81.06l-.2,.98c-90.6-18.2-168.04-50.19-242.93-81.12-9.34-3.86-18.65-7.7-27.97-11.52-114.47-46.8-220.93-85.21-364.89-81.23-88.54,2.45-183.27,20.39-289.61,54.84-103.27,33.31-209.51,68.41-312.25,102.36-103.06,34.05-209.63,69.26-313.77,102.86-216.47,69.83-406.19,123.84-580.01,165.09-199.96,47.46-379.88,77.73-534.75,89.97-101.79,8.04-204.35,12.06-307.03,12.06Z"/><path class="b" d="M623.1,1198.73c-117.92,0-236.24-6.6-354.07-19.79-92.35-10.34-187.83-30.55-291.9-61.79-103.59-31.1-204.71-70.06-281.24-100.53l.37-.93c205.78,81.93,381.96,140.88,572.88,162.25,228.24,25.56,458.3,26.36,683.78,2.39,380-40.4,863.07-208.08,1330.24-370.25,135.66-47.09,275.94-95.79,412.07-140.83,78.87-26.09,150.38-42.41,218.64-49.88,60.96-6.67,118.01-6.09,174.39,1.79,104.92,14.65,188.73,51.65,277.46,90.81,78.3,34.56,159.27,70.3,255.96,89.09l-.19,.98c-96.81-18.81-177.83-54.57-256.17-89.15-175.99-77.68-342.22-151.06-669.77-42.69-136.13,45.04-276.4,93.73-412.06,140.82-233.95,81.21-475.87,165.19-701.39,232.03-252.73,74.91-458.5,120.14-629.07,138.27-109.14,11.6-219.37,17.4-329.93,17.4Z"/><path class="c" d="M2887.42,1185.61c-23.33,0-46.27-.61-68.94-1.82-94.72-5.07-185.29-21.28-269.18-48.18-118.34-37.94-234.48-100.41-376.56-202.56-19.18-13.79-38.6-28.21-57.38-42.16-73.56-54.63-149.62-111.11-234.73-147.55-195.73-83.8-410.66-6.69-600.29,61.35-34.4,12.34-66.9,24-99.39,34.85-181.03,60.42-329.4,98.48-466.95,119.78-86.77,13.43-169.11,20.15-248.08,20.15-80.32,0-157.15-6.95-231.68-20.85-71.55-13.35-139.75-33.63-202.7-60.3-66.91-28.34-128.32-64.1-182.54-106.28-93.15-72.47-166.09-167.34-232.83-258.29l.81-.59c66.69,90.9,139.59,185.7,232.64,258.09,106.14,82.58,235.61,138.56,384.81,166.39,77.95,14.54,155.89,20.9,233.06,20.9,252.79,0,497.96-68.12,713.14-139.94,32.48-10.84,64.97-22.5,99.37-34.84,97.39-34.94,198.09-71.07,299.59-88.21,115.17-19.44,213.76-10.65,301.43,26.88,85.21,36.48,161.32,93.01,234.93,147.67,18.78,13.95,38.2,28.37,57.37,42.15,142,102.08,258.05,164.51,376.28,202.42,111.82,35.85,224.93,50.37,338.45,50.37,246.45,0,495.05-68.34,738.04-135.14,10.34-2.84,20.65-5.68,30.93-8.5l.27,.96c-10.29,2.82-20.6,5.66-30.93,8.5-174.11,47.86-354.15,97.35-535.64,120.83-71.98,9.31-139.08,13.92-203.29,13.92Z"/><path class="c" d="M3001.59,1159.68c-159.74,0-300.45-19.56-429.67-59.68-76.26-23.67-153.97-56.63-237.55-100.78-45.08-23.74-92.96-51.21-146.4-83.99-16.85-10.26-33.9-20.87-50.39-31.13-78.52-48.87-159.72-99.4-248.9-130.22-191.85-66.29-393.22,3.75-587.95,71.49-39.42,13.71-76.66,26.67-114.06,38.6-54.84,17.57-105.25,32.57-154.12,45.88-300.84,81.55-560.75,95.42-794.58,42.4-70.8-16.05-138.68-38.75-201.76-67.46-65.85-29.97-126.62-66.58-180.64-108.83-94.68-74.24-166.96-162.61-238.76-254.22l.79-.62c71.76,91.55,144,179.88,238.59,254.05,105.43,82.44,237.53,143.34,382.01,176.1,233.67,52.98,493.42,39.12,794.1-42.39,48.86-13.3,99.26-28.3,154.08-45.86,37.39-11.93,74.62-24.88,114.03-38.59,95.93-33.37,195.12-67.87,294.23-85.7,112.09-20.16,208.38-15.51,294.38,14.2,89.29,30.86,170.54,81.42,249.11,130.32,16.49,10.26,33.53,20.87,50.38,31.12,53.42,32.77,101.29,60.23,146.35,83.96,83.53,44.12,161.18,77.06,237.38,100.71,134.28,41.69,281.03,61.17,448.64,59.54,203.35-1.97,403.13-34.88,596.32-66.7,16.34-2.69,32.63-5.38,48.85-8.03l.16,.99c-16.22,2.65-32.51,5.33-48.85,8.03-193.24,31.83-393.05,64.74-596.48,66.71-6.45,.06-12.89,.09-19.28,.09Z"/><path class="c" d="M3229.59,1143.18c-61.82,0-124.23-1.48-187.28-5.17-169.45-9.93-315.91-34.01-447.76-73.62-75.84-22.77-154.69-53.29-241.03-93.31-52.77-24.33-103.43-49.78-150.31-73.67-10.59-5.4-21.15-10.82-31.7-16.24-87.2-44.76-177.36-91.05-274.76-116.76-187.19-49.4-383.45,16.94-573.25,81.1-43.24,14.62-87.96,29.73-131.09,42.88-54.97,16.88-105.8,31.19-155.38,43.76-138.94,34.94-273.99,54.42-401.4,57.9-137.81,3.76-270.34-11.11-393.92-44.18-141.81-37.95-273.06-102.27-379.58-185.99-100.2-79.13-177.81-170.99-240.17-244.81l-4.51-5.34,.76-.65,4.51,5.34c62.33,73.78,139.91,165.6,240.03,244.67,106.41,83.64,237.54,147.89,379.22,185.81,237.97,63.69,505.39,59.07,794.82-13.72,49.57-12.56,100.38-26.88,155.34-43.75,43.12-13.14,87.83-28.25,131.07-42.87,189.94-64.2,386.35-130.59,573.83-81.12,97.5,25.73,187.72,72.04,274.97,116.83,10.55,5.42,21.11,10.84,31.7,16.23,46.87,23.88,97.51,49.34,150.27,73.65,86.31,40,165.1,70.5,240.9,93.26,131.77,39.58,278.16,63.65,447.53,73.58,191.7,11.24,377.84,1.96,557.86-7.01,24.6-1.23,50.03-2.49,74.84-3.68l.05,1c-24.81,1.18-50.24,2.45-74.84,3.67-120.84,6.03-244.48,12.19-370.68,12.19Z"/><path class="c" d="M3684.02,1169.79c-41.03-3.03-83.3-5.97-124.17-8.8-159.6-11.08-324.64-22.55-496.11-44.56-179.36-23.02-317.08-50.05-446.57-87.65-75.69-21.97-153.39-49.24-244.52-85.83-40.73-16.23-80.82-32.89-119.59-48.99-11.59-4.82-23.13-9.61-34.62-14.36l-2.38-.98c-103.96-43.03-202.15-83.66-311.27-103.65-181.52-33.25-371.6,29.39-555.42,89.95-49.79,16.4-101.27,33.37-151.26,47.92-55.16,16.21-106.4,29.83-156.64,41.65-137.95,32.09-274.3,47.42-405.29,45.57-135.59-1.92-267.06-22.28-390.78-60.54-138.75-42.91-269.03-110.57-376.75-195.69-94.12-74.81-167.43-155.07-226.33-219.56-8.47-9.27-16.47-18.03-24.28-26.5l.73-.68c7.81,8.48,15.81,17.23,24.28,26.51,58.88,64.47,132.15,144.7,226.21,219.45,107.62,85.04,237.79,152.65,376.42,195.52,244.93,75.74,512.59,80.77,795.54,14.96,50.23-11.81,101.45-25.43,156.59-41.63,49.98-14.55,101.45-31.51,151.23-47.91,183.94-60.61,374.15-123.28,555.91-89.99,109.22,20,207.47,60.66,311.47,103.71l2.38,.98c11.49,4.76,23.03,9.55,34.62,14.37,38.77,16.1,78.85,32.75,119.58,48.99,91.1,36.58,168.76,63.85,244.42,85.8,129.43,37.59,267.11,64.61,446.41,87.62,171.44,22,336.46,33.47,496.05,44.55,40.87,2.84,83.14,5.77,124.17,8.8l-.07,1Z"/><path class="c" d="M3692.92,1212.26c-97.92-19.7-196.14-38.32-300.13-58.04-99.31-18.83-201.99-38.3-307.61-59.37-156.92-31.3-298.75-60.55-445.37-101.69-72.92-20.44-149.4-44.6-248-78.36-9.64-3.27-19.23-6.53-28.77-9.77-44.74-15.21-87-29.57-129.34-43.27-99.13-32.06-205.55-64.37-320.83-76.27-174.53-18.03-356.98,40.82-533.42,97.73-57.64,18.59-117.25,37.82-175.6,54.03-55.35,15.55-107,28.48-157.9,39.53-137.45,29.46-275.11,40.63-409.16,33.17-133.29-7.41-263.72-33.26-387.65-76.83-135.4-47.6-264.69-118.62-373.92-205.39-85.68-68.49-154.18-138.29-209.23-194.37-16.9-17.22-32.86-33.48-47.3-47.62l.7-.71c14.45,14.15,30.41,30.41,47.31,47.63,55.03,56.07,123.51,125.84,209.14,194.29,109.13,86.7,238.33,157.67,373.62,205.23,251.3,88.34,519.2,103.02,796.27,43.63,50.88-11.04,102.51-23.97,157.85-39.52,58.33-16.21,117.93-35.43,175.56-54.02,88.19-28.45,179.39-57.86,268.58-77.33,100.1-21.85,186.86-28.54,265.25-20.44,115.37,11.92,221.85,44.24,321.03,76.32,42.35,13.7,84.61,28.06,129.36,43.27,9.54,3.24,19.13,6.5,28.77,9.77,98.58,33.75,175.05,57.92,247.95,78.35,146.59,41.12,288.4,70.37,445.3,101.67,105.61,21.07,208.3,40.54,307.6,59.36,103.99,19.72,202.21,38.34,300.14,58.04l-.2,.98Z"/><path class="c" d="M3701.83,1254.72c-211.97-70.97-401.11-128.63-595.21-181.44-72.5-19.72-144.77-38.16-221.29-57.69-72.79-18.57-148.05-37.77-222.89-58.03-70.68-19.11-141.18-39.31-209.35-58.84-14.07-4.03-28.12-8.05-42.13-12.06-63.75-18.02-115.23-31.6-162.01-42.73-129.29-30.77-230.45-45.54-328.01-47.92-165.78-4.03-338.63,50.88-505.79,103.97-67.26,21.37-136.81,43.46-205.57,61.69-55.57,14.9-107.64,27.14-159.17,37.41-137.35,27.02-276.3,33.99-413.01,20.71-130.94-12.72-260.32-44.03-384.54-93.06C121.2,874.79-7.12,800.41-118.23,711.65c-75.98-61.06-139.14-121.61-189.89-170.26-27.85-26.7-51.89-49.75-72.56-67.65l.66-.76c20.68,17.91,44.74,40.98,72.59,67.69,50.73,48.64,113.87,109.17,189.82,170.2,111.03,88.69,239.26,163.02,370.83,214.94,253.44,100.02,529.03,125.02,796.99,72.3,51.5-10.27,103.55-22.5,159.1-37.4,68.74-18.23,138.28-40.32,205.52-61.68,83.83-26.63,170.52-54.17,254.93-73.89,94.54-22.09,176.7-31.94,251.19-30.13,97.63,2.38,198.85,17.16,328.21,47.94,46.79,11.13,98.29,24.72,162.06,42.74,14.01,4,28.06,8.03,42.13,12.06,68.18,19.53,138.67,39.72,209.34,58.83,74.83,20.26,150.09,39.46,222.88,58.03,76.52,19.52,148.8,37.96,221.31,57.69,194.13,52.82,383.28,110.48,595.27,181.46l-.32,.95Z"/><path class="c" d="M3710.74,1297.17c-176.04-83.67-368.47-171.31-582.69-245.48-145.77-50.46-299.06-92.18-442.99-129.75-70.14-18.29-162.51-42.03-254.96-63.43-59.77-13.67-114.04-24.28-165.92-32.42-121.71-19.1-228.22-25.31-335.19-19.56-154.61,8.32-308.02,56.72-470.44,107.96-79.25,25-161.2,50.86-243.25,71.61-55.8,14.26-108.27,25.81-160.43,35.3-137.57,24.73-277.82,27.48-416.83,8.19-128.54-17.84-256.88-54.59-381.46-109.23C129.19,864.5,1.85,786.76-111.67,695.58c-65.95-53.25-123.19-105.56-169.19-147.6-40.86-37.34-73.13-66.83-99.16-86.23l.6-.8c26.08,19.42,58.36,48.93,99.24,86.29,45.98,42.03,103.21,94.33,169.14,147.56,113.45,91.13,240.72,168.82,368.03,224.66,262.22,115.01,530.61,148.98,797.71,100.97,52.13-9.49,104.58-21.03,160.36-35.29,82.03-20.75,163.96-46.59,243.2-71.59,162.48-51.26,315.95-99.68,470.69-108,107.04-5.76,213.62,.46,335.4,19.57,51.9,8.14,106.2,18.75,165.99,32.43,92.47,21.4,184.84,45.14,254.99,63.43,143.95,37.57,297.26,79.3,443.07,129.77,214.26,74.18,406.72,161.84,582.79,245.52l-.43,.9Z"/><path class="c" d="M3719.66,1339.62c-173.46-108.08-360.36-221-570.17-309.51-129.15-54.48-273.67-101.51-441.8-143.77-88.76-22.3-175.71-41.12-258.44-55.96-58.09-10.3-115.22-17.74-169.82-22.11-115-9.2-227-6.32-342.37,8.8-139.97,18.35-278.06,62.14-424.25,108.5-94.53,29.98-192.29,60.98-291.78,84.97-56.05,13.63-108.94,24.48-161.69,33.18-138.07,22.54-279.59,21.07-420.63-4.39-126.12-22.76-253.44-64.94-378.41-125.35-124.17-60.02-247.11-138.92-365.43-234.49-56.11-45.5-104.81-88.44-147.77-126.33-53.67-47.33-96.07-84.72-126.48-103.41l.52-.85c30.49,18.74,72.91,56.15,126.62,103.51,42.96,37.88,91.65,80.82,147.74,126.31,118.25,95.53,241.14,174.38,365.23,234.37,266.8,128.97,535.43,172.59,798.44,129.65,52.72-8.7,105.58-19.55,161.61-33.17,99.45-23.98,197.19-54.97,291.71-84.95,146.24-46.38,284.36-90.18,424.42-108.54,115.44-15.13,227.5-18.01,342.58-8.81,54.63,4.37,111.8,11.81,169.92,22.12,82.75,14.84,169.73,33.67,258.51,55.97,168.19,42.27,312.75,89.32,441.95,143.82,209.87,88.54,396.81,201.48,570.31,309.58l-.53,.85Z"/><path class="c" d="M3728.58,1382.06c-186.23-145.04-356.73-273.25-557.65-373.54-132.17-65.97-280.42-119.06-440.61-157.8-86.34-20.87-174.46-37.18-261.93-48.49-57.22-7.34-115.67-11.31-173.72-11.8-111.88-.62-226.19,11.55-349.55,37.16-120.16,24.94-237.79,63.11-362.32,103.52-114.51,37.16-232.93,75.58-356.04,103.86-56.3,12.99-109.6,23.16-162.95,31.07-138.79,20.45-281.57,14.73-424.38-17.01-123.7-27.49-250-75.07-375.39-141.41-119.72-63.34-238.33-143.22-362.6-244.19-46.68-38.01-88.84-74.25-126.04-106.23-67.2-57.77-120.27-103.39-154.1-119.42l.43-.9c33.95,16.09,87.07,61.75,154.33,119.57,37.19,31.97,79.35,68.21,126.02,106.21,124.22,100.93,242.77,180.77,362.44,244.08,270.81,143.29,539.69,196.55,799.16,158.32,53.32-7.91,106.6-18.07,162.87-31.05,123.07-28.26,241.46-66.68,355.95-103.83,124.56-40.42,242.21-78.6,362.43-103.55,123.43-25.62,237.82-37.78,349.76-37.18,58.1,.49,116.59,4.47,173.84,11.81,87.5,11.31,175.66,27.64,262.03,48.51,160.27,38.75,308.59,91.87,440.83,157.87,201,100.32,371.54,228.57,557.81,373.64l-.61,.79Z"/><path class="c" d="M3737.51,1424.5c-157.21-148.27-335.4-316.33-545.14-437.57-207.8-120.12-444.94-191.73-704.84-212.85-292.54-23.77-544.43,62.12-811.11,153.06-190.4,64.92-387.28,132.06-608.15,161.2-129.11,17.03-262.05,9.82-395.13-21.44-113.95-26.77-231.38-72.01-349.02-134.48C109.01,818.22-67.41,669.17-196.22,560.34c-84.43-71.33-145.43-122.87-181.81-134.57l.31-.95c36.57,11.76,97.63,63.35,182.15,134.76,248.49,209.93,711.01,600.7,1263.72,527.78,220.77-29.13,417.61-96.25,607.96-161.16,266.79-90.97,518.78-176.9,811.51-153.11,126.24,10.26,248.92,32.87,364.63,67.22,120.66,35.82,235.27,84.86,340.62,145.76,91.66,52.98,184.95,119.34,285.21,202.86,87.97,73.28,169.85,149.72,260.11,234.85l-.69,.73Z"/></svg>