<svg width="148" height="30" viewBox="0 0 148 30" fill="none" xmlns="http://www.w3.org/2000/svg">
<path d="M50.6578 9.05054L47.7797 14.6471L44.9501 9.05054H40.8998L45.4069 17.0068L42.0599 22.9626L43.2079 26.2578H44.1296L47.4038 19.993L50.5851 26.2578H54.6314L49.7524 17.6291L54.5829 9.05054H50.6578Z" fill="#D9D9D9"/>
<path d="M34.7677 14.6178L36.6918 20.3982H32.8274L34.7677 14.6178ZM33.3569 9.05054L27.3541 26.262H30.8871L31.8128 23.5013H37.7104L38.6361 26.262H42.2782L36.2997 9.05054H33.3569Z" fill="#D9D9D9"/>
<path d="M21.5898 2.5769L15.2394 17.2574L8.88496 2.5769H3.98572V26.2996H8.73135V12.943L14.7139 26.2996H15.769L21.7515 12.943V26.2996H26.5255V2.5769H21.5898Z" fill="#D9D9D9"/>
<path d="M20.1831 2.5769L15.2919 13.8953H15.2232L10.324 2.5769H20.1831Z" fill="#BEBEBE"/>
<path d="M81.0437 6.82025V2.62701H85.4296V6.82025H81.0437ZM81.0437 26.2745V9.14657H85.4296V26.2787H81.0437V26.2745Z" fill="#D9D9D9"/>
<path d="M87.8468 26.2787V2.81915H92.4671V22.2943H103.959V26.2787H87.8468Z" fill="#D9D9D9"/>
<path d="M105.018 6.82025V2.62701H109.404V6.82025H105.018ZM105.018 26.2745V9.14657H109.404V26.2787H105.018V26.2745Z" fill="#D9D9D9"/>
<path d="M110.649 17.4704C110.649 15.9668 111.009 14.5092 111.729 13.0976C112.448 11.6901 113.463 10.6125 114.781 9.8691C116.098 9.12568 117.57 8.75397 119.191 8.75397C121.701 8.75397 123.754 9.59763 125.359 11.2766C126.964 12.9597 127.764 15.0856 127.764 17.6583C127.764 20.2311 126.956 22.3987 125.335 24.1027C123.718 25.8067 121.677 26.6587 119.223 26.6587C117.703 26.6587 116.252 26.3037 114.874 25.5937C113.495 24.8837 112.444 23.8438 111.729 22.4739C111.009 21.104 110.649 19.4333 110.649 17.4662V17.4704ZM115.144 17.7126C115.144 19.4125 115.537 20.7114 116.317 21.6177C117.097 22.5198 118.059 22.9709 119.207 22.9709C120.355 22.9709 121.313 22.5198 122.089 21.6177C122.865 20.7155 123.253 19.4041 123.253 17.6834C123.253 15.9627 122.865 14.7139 122.089 13.8117C121.313 12.9096 120.355 12.4585 119.207 12.4585C118.059 12.4585 117.101 12.9096 116.317 13.8117C115.537 14.7139 115.144 16.0169 115.144 17.7168V17.7126Z" fill="#D9D9D9"/>
<path d="M144.043 26.2787H139.657V17.533C139.657 15.6828 139.564 14.4883 139.374 13.9454C139.188 13.4025 138.881 12.9806 138.46 12.6799C138.04 12.3792 137.531 12.2288 136.936 12.2288C136.176 12.2288 135.493 12.446 134.891 12.8762C134.289 13.3064 133.872 13.8744 133.65 14.5844C133.428 15.2944 133.314 16.6058 133.314 18.5187V26.2787H128.929V9.14657H133.003V11.665C134.45 9.73128 136.273 8.76233 138.468 8.76233C139.434 8.76233 140.32 8.94192 141.124 9.3011C141.925 9.66028 142.531 10.1197 142.943 10.6794C143.355 11.239 143.638 11.8738 143.8 12.5839C143.962 13.2939 144.043 14.3088 144.043 15.6327V26.2787Z" fill="#D9D9D9"/>
<path d="M59.9308 9.20508H56.4261V26.2662H59.9308V9.20508Z" fill="#D9D9D9"/>
<path d="M75.0813 9.20508L70.5136 19.7633L65.9417 9.20508H62.4169V26.2662H65.8286V16.6602L70.1336 26.2662H70.8935L75.1945 16.6602V26.2662H78.6305V9.20508H75.0813Z" fill="#D9D9D9"/>
</svg>
