<?xml version="1.0" encoding="UTF-8"?><svg xmlns="http://www.w3.org/2000/svg" viewBox="0 0 804.14 964.14"><defs><style>.q{fill:#00438a;}.r{fill:#003a75;}.s{fill:#006dce;}.t{fill:#ffe006;}.u{fill:#e6e6e6;}.v{fill:#fff;}.w{fill:#f2b69b;}.x{fill:#e69d81;}.y{fill:#b57c2d;}.a`{fill:#b3b3b3;}.aa{fill:#ddaf1f;}.ab{fill:#cb9f04;}.ac{fill:#065bba;}.ad{fill:#1a1a1a;}.ae{fill:#9c6821;}</style></defs><g id="a"><path class="q" d="M182.12,292.61h0c-4.8,4.68-7.92,10.82-8.85,17.46l-14.98,106.32-34.05,47.67v19.23l10.01,13.62,54.48-24.03-6.61-180.27Z"/><circle class="ab" cx="143.35" cy="466.91" r="16.08"/><g><path class="w" d="M112.24,477.41c-.42,1.98-.71,4.06-.12,5.99,.52,1.74,1.7,3.19,2.87,4.58,1.87,2.22,3.78,4.4,5.74,6.54,1.17,1.27,2.4,2.57,4.01,3.21,3.12,1.25,6.58-.29,9.58-1.8,1.85-.93,3.98-2.3,3.94-4.37-.04-1.99-2.09-3.3-4-3.88s-4.04-.9-5.38-2.38c-1.69-1.88-1.35-4.75-1.09-7.26,.4-3.77,.37-7.59-.08-11.36-.55-4.63-4.68-11.17-8.91-5.41-3.35,4.58-5.41,10.64-6.56,16.13Z"/><path class="ad" d="M124.24,789.23l-3.85-306.69s1.75-15.94,19.91-12.7c18.16,3.24-3.52,18.52-3.52,18.52l-6.31,300.87h-6.23Z"/><path class="w" d="M139.52,488.36c.4,1.93,.92,3.96,2.56,5.17,.9,.67,2.09,.92,3.13,.51,1.44-.57,1.7-1.95,1.92-3.23l3.01-18.13c.47-2.84,.94-5.78,.23-8.56-1.17-4.62-5.49-7.96-10.13-9.05s-9.52-.24-14.06,1.21c-2.38,.76-4.81,1.76-6.44,3.65-2.16,2.52-2.48,6.08-2.7,9.39-.17,2.46,5.29,1.78,10.67,.17,4.95-1.49,10.03,2.04,10.33,7.2,.23,3.89,.68,7.77,1.48,11.67Z"/></g></g><g id="b"><path class="ac" d="M285.42,692.21l-2.7-44.67h49.57l-3.62,37.02c-1.43,.28-2.87,.57-4.31,.88-13.03,3.08-26,5.24-38.94,6.76Z"/><path class="s" d="M324.36,685.45c1.44-.31,2.87-.6,4.31-.88l-6.85,70.14h-32.62l-3.78-62.5c12.94-1.53,25.91-3.68,38.94-6.76Z"/><path class="ac" d="M202.79,647.54h49.57l-2.88,47.53c-13.96,.66-27.92,.91-41.94,1.11l-4.75-48.64Z"/><path class="s" d="M249.48,695.07l-3.61,59.63h-32.62l-5.71-58.53c14.02-.2,27.98-.44,41.94-1.11Z"/><path class="aa" d="M352.46,631.23v45.57c-117.84,16.45-175.77,0-175.77,0v-35.71c58.26,6.27,118.12,.99,175.77-9.87Z"/><path class="ab" d="M176.69,641.09l18.82-286.35h136.78l20.18,276.49c-57.65,10.85-117.51,16.14-175.77,9.87Z"/><g><path class="q" d="M182.12,334.09h164.91v-41.48l-48.97-29.89c-20.56-12.55-46.41-12.55-66.97,0l-48.97,29.89v41.48Z"/><path class="q" d="M347.04,334.09l22.31,288.91s-44.86,20.81-99.97,8.73l-4.8-98.02-10.03,97.35s-60.42,11.41-89.29-10.74l16.86-286.22"/></g><polygon class="q" points="289.2 754.71 284.74 789.23 325.19 789.23 321.82 754.71 289.2 754.71"/><path class="ad" d="M284.74,789.23h54.82v-6.92c0-5.76-4.58-10.47-10.33-10.64l-18.14-.53c-6.89-.2-13.49,2.76-17.92,8.05l-8.42,10.04Z"/><polygon class="q" points="245.87 754.71 250.33 789.23 209.88 789.23 213.25 754.71 245.87 754.71"/><path class="ad" d="M250.33,789.23h-54.82v-6.92c0-5.76,4.58-10.47,10.33-10.64l18.14-.53c6.89-.2,13.49,2.76,17.92,8.05l8.42,10.04Z"/><polygon class="aa" points="286.16 263.89 261.66 377.35 242.9 264.46 286.16 263.89"/><path class="s" d="M264.53,455s-.04,0-.07,0c-.2-.03-.35-.2-.36-.4l-2.87-77.22s0-.07,0-.11l24.5-113.46c.04-.16,.16-.29,.32-.33,.16-.04,.33,.02,.43,.15l26.2,33.2c.08,.1,.11,.22,.08,.34-.02,.12-.1,.23-.2,.29l-14.68,8.64h21.21c.14,0,.27,.07,.35,.18,.08,.11,.1,.26,.05,.39l-54.57,148.06c-.06,.17-.22,.28-.4,.28Zm-2.44-77.61l2.79,75.02,53.61-145.46h-22.16c-.19,0-.36-.13-.41-.31-.05-.19,.03-.38,.2-.48l15.61-9.18-25.34-32.1-24.3,112.53Z"/><path class="s" d="M264.43,455c-.18,0-.34-.11-.4-.28l-54.57-148.06c-.05-.13-.03-.28,.05-.39,.08-.11,.21-.18,.35-.18h21.21l-14.68-8.64c-.11-.06-.18-.17-.2-.29-.02-.12,0-.25,.08-.34l26.2-33.2c.1-.13,.28-.19,.44-.15,.16,.04,.29,.18,.31,.34l18.86,113.46,2.78,77.28c0,.21-.14,.39-.34,.43-.03,0-.06,0-.08,0Zm-53.96-148.06l53.44,144.99-2.67-74.56-18.7-112.46-25.3,32.06,15.61,9.18c.17,.1,.25,.29,.2,.48-.05,.19-.22,.31-.41,.31h-22.16Z"/><path class="s" d="M258.21,475.32c-2.79,0-5.06-2.27-5.06-5.06s2.27-5.06,5.06-5.06,5.06,2.27,5.06,5.06-2.27,5.06-5.06,5.06Zm0-9.26c-2.32,0-4.2,1.89-4.2,4.2s1.89,4.2,4.2,4.2,4.2-1.89,4.2-4.2-1.89-4.2-4.2-4.2Z"/><path class="s" d="M255.49,509.95c-2.79,0-5.06-2.27-5.06-5.06s2.27-5.06,5.06-5.06,5.06,2.27,5.06,5.06-2.27,5.06-5.06,5.06Zm0-9.26c-2.32,0-4.2,1.89-4.2,4.2s1.89,4.2,4.2,4.2,4.2-1.89,4.2-4.2-1.89-4.2-4.2-4.2Z"/><path class="x" d="M264.58,284.5h0c11.23,0,20.43-8.91,20.79-20.14l1-31.17h-43.58l1,31.17c.36,11.23,9.56,20.14,20.79,20.14Z"/><rect class="v" x="30.33" y="476.77" width="286.72" height=".85" transform="translate(-313.01 622.14) rotate(-86.58)"/><g><path class="s" d="M263.13,286.91c-5.41,8.37,3.15,11.52,3.15,11.52,24.54-5.87,19.27-39.58,19.27-39.58-15.96,3.41-21.16,36.85-23.04,22.59s-19.23-23.01-19.23-23.01c0,0-6.77,36.26,19.86,28.48Z"/><circle class="q" cx="264.58" cy="291.06" r="10.54"/><path class="ac" d="M277.22,321.2s2-7.17,2.09-7.88c.38-2.86,.38-5.76-.02-8.62-.63-4.59-2.37-12.04-6.84-14.44-2.74-1.47-7.09-1.16-8.87,1.7-2.26,3.65,.58,10.57,2.05,14.1,2.47,5.93,6.46,11.25,11.58,15.15Z"/><path class="ac" d="M245.9,318.74s6.56-3.52,7.14-3.94c2.32-1.7,4.42-3.72,6.21-5.98,2.88-3.63,7.06-10.04,5.7-14.93-.84-3-4.07-5.92-7.36-5.23-4.2,.89-7.23,7.73-8.77,11.23-2.57,5.89-3.66,12.45-2.93,18.84Z"/><path class="q" d="M271.57,298.2l-.96-.27c1.03-3.64-.89-7.97-4.26-9.66l.45-.89c3.85,1.93,5.95,6.69,4.78,10.83Z"/><path class="q" d="M268.35,298.9l-.96-.28c.96-3.36-.13-7.21-2.72-9.56l.67-.74c2.86,2.6,4.07,6.85,3.01,10.57Z"/><path class="q" d="M255.9,302.25c-.08-2.82-.16-5.73,.63-8.54,.89-3.16,2.9-5.67,5.39-6.7l.38,.92c-2.21,.91-4,3.17-4.81,6.04-.75,2.66-.67,5.5-.6,8.24l-1,.03Z"/><path class="s" d="M268.38,288.69l-.1-1c2.3-.23,4.51-1.35,6.06-3.08l.74,.67c-1.71,1.91-4.15,3.15-6.7,3.4Z"/><path class="s" d="M262.98,287.86c-3.09-1.47-5.63-3.96-7.14-7.04l.9-.44c1.41,2.87,3.78,5.2,6.67,6.57l-.43,.9Z"/><path class="q" d="M277.59,288.38l-.81-.59c4.64-6.39,7.01-14.25,6.68-22.14l1-.04c.34,8.11-2.1,16.2-6.87,22.77Z"/><path class="q" d="M254.89,287.1c-1.81,0-3.71-.7-5.32-2.02-2.13-1.74-3.43-4.22-4.23-5.93-.83-1.78-1.4-3.4-1.75-4.95l.97-.22c.34,1.48,.89,3.04,1.69,4.75,1.2,2.58,2.46,4.35,3.95,5.58,1.87,1.53,4.24,2.14,6.19,1.6l.27,.96c-.57,.16-1.17,.24-1.77,.24Z"/></g></g><g id="c"><path class="w" d="M389.1,502.4c.28,9.75,.56,19.54-.41,29.25s-3.21,19.4-7.74,28.05c-.63,1.21-2.34,1.82-3.68,2.09s-2.86-.13-3.69-1.21c-1.45-1.87-.31-4.54,.69-6.68,3.5-7.46,4.88-15.91,3.94-24.1-.89-7.77-3.81-15.22-4.48-23.01-.38-4.43,.3-9.53,3.94-12.09,2.3-1.62,5.52-1.8,7.99-.46s3.36,5.35,3.44,8.16Z"/><path class="w" d="M376.34,533.56c-.48,2.05-.97,4.11-1.46,6.16-.2,.82-.4,1.66-.88,2.36s-1.29,1.23-2.13,1.14c-.77-.09-1.41-.69-1.75-1.39s-.44-1.49-.53-2.26c-.86-7.51-1.27-15.17,.33-22.56,.39-1.79,.92-3.61,2.05-5.05s3.01-2.42,4.8-2.04c3.59,.77,4.09,5.19,3.73,8.16-.34,2.81-1.81,5.49-2.46,8.26-.57,2.41-1.14,4.81-1.7,7.22Z"/><polygon class="ab" points="392.15 488.95 392.15 515.45 365.65 520.84 359.81 495.24 392.15 488.95"/><path class="q" d="M347.04,292.61h0c7.43,4.14,12.78,11.22,14.73,19.5l43.96,186.93s-11.46,16.33-58.68,11.88l-8.13-175.19"/><path class="v" d="M362.7,512.12c-4.73,0-9.95-.24-15.7-.78l-.37-.03-8.14-175.56,.85-.04,8.11,174.82c46.13,4.26,57.81-11.57,57.93-11.73l.7,.49c-.42,.59-9.45,12.84-43.37,12.84Z"/></g><g id="d"><circle class="u" cx="264.54" cy="163.19" r="22.09"/><ellipse class="u" cx="264.58" cy="201.8" rx="42.44" ry="35.48"/><g><path class="a`" d="M275.06,194.21c-.51,0-1-.18-1.34-.58l.58-.49c.4,.48,1.27,.37,1.78-.05,.6-.49,.91-1.3,1.19-2.01,1.07-2.75,2.17-5.6,2.37-8.58,.22-3.24-.8-6.21-2.74-7.95l.51-.56c2.11,1.9,3.23,5.1,2.99,8.56-.21,3.09-1.33,5.99-2.42,8.8-.29,.76-.66,1.71-1.42,2.32-.41,.33-.96,.53-1.5,.53Z"/><path class="a`" d="M264.68,193.47l-.52-.55c3.34-3.12,3.9-8.89,1.23-12.6l.61-.44c2.94,4.07,2.34,10.17-1.32,13.59Z"/><path class="a`" d="M256.75,193.9c-2.21-4.78-2.47-10.37-.71-15.33l.71,.25c-1.69,4.78-1.44,10.16,.68,14.76l-.69,.32Z"/><path class="a`" d="M246.97,194.41c-2.72-4.2-3.21-9.67-1.28-14.28l.7,.29c-1.83,4.39-1.37,9.59,1.22,13.58l-.63,.41Z"/></g><g><path class="w" d="M298.58,216.18c.39,5.84,.72,12.02-1.95,17.22-.53,1.03-1.19,2.02-2.12,2.72s-2.16,1.05-3.27,.71c-2-.61-2.75-2.99-3.2-5.04-1-4.57-2.56-11.61,.28-15.91,2.86-4.34,9.77-6.94,10.26,.29Z"/><path class="w" d="M230.57,216.18c-.39,5.84-.72,12.02,1.95,17.22,.53,1.03,1.19,2.02,2.12,2.72s2.16,1.05,3.27,.71c2-.61,2.75-2.99,3.2-5.04,1-4.57,2.56-11.61-.28-15.91s-9.77-6.94-10.26,.29Z"/></g><path class="w" d="M238.49,199.08c1.06-5.24,4.98-9.45,10.14-10.87h0c4.13-1.14,8.53-.82,12.45,.9h0c2.23,.98,4.77,.98,7,0h0c3.93-1.72,8.32-2.04,12.45-.9h0c5.16,1.42,9.08,5.62,10.14,10.87l.61,3.01v30.5c0,14.74-11.95,26.7-26.7,26.7h0c-14.74,0-26.7-11.95-26.7-26.7v-30.5l.61-3.01Z"/><g><g><path class="y" d="M281.96,232.28c-7.99,0-14.48-6.5-14.48-14.48s6.5-14.48,14.48-14.48,14.48,6.5,14.48,14.48-6.5,14.48-14.48,14.48Zm0-27.45c-7.15,0-12.97,5.82-12.97,12.97s5.82,12.97,12.97,12.97,12.97-5.82,12.97-12.97-5.82-12.97-12.97-12.97Z"/><path class="y" d="M247.2,232.28c-7.99,0-14.48-6.5-14.48-14.48s6.5-14.48,14.48-14.48,14.48,6.5,14.48,14.48-6.5,14.48-14.48,14.48Zm0-27.45c-7.15,0-12.97,5.82-12.97,12.97s5.82,12.97,12.97,12.97,12.97-5.82,12.97-12.97-5.82-12.97-12.97-12.97Z"/></g><path class="y" d="M268.99,217.8h-1.51v-2.55c0-1.6-1.3-2.9-2.9-2.9s-2.9,1.3-2.9,2.9v2.55h-1.51v-2.55c0-2.43,1.98-4.41,4.41-4.41s4.41,1.98,4.41,4.41v2.55Z"/></g><g><circle class="ad" cx="279.05" cy="217.8" r="3.3"/><path class="ad" d="M285.29,217.87c-3.25-2.14-7.65-2.53-11.22-.99l-.6-1.39c4.09-1.76,8.94-1.33,12.65,1.12l-.83,1.26Z"/></g><g><path class="ad" d="M253.22,217.8c0-1.82-1.48-3.3-3.3-3.3s-3.3,1.48-3.3,3.3,1.48,3.3,3.3,3.3,3.3-1.48,3.3-3.3Z"/><path class="ad" d="M243.69,217.87l-.83-1.26c3.72-2.45,8.56-2.88,12.65-1.12l-.6,1.39c-3.57-1.54-7.98-1.15-11.22,.99Z"/></g><rect class="x" x="257.44" y="225.6" width="13.47" height="1.51" transform="translate(22.36 476.47) rotate(-86.56)"/><path class="x" d="M264.59,242.34c-.08,0-.16,0-.23,0-2.75-.07-5.44-1.37-7.21-3.48l1.16-.97c1.49,1.78,3.76,2.88,6.08,2.94,2.31,.07,4.65-.92,6.22-2.63l1.11,1.03c-1.81,1.96-4.47,3.11-7.14,3.11Z"/><path class="u" d="M255,211.8c-3.45-1.07-7.24-1.08-10.69-.01l-.89-2.89c4.03-1.24,8.46-1.24,12.48,.01l-.9,2.89Z"/><path class="u" d="M286.26,211.8c-3.45-1.07-7.24-1.08-10.69-.01l-.89-2.89c4.03-1.24,8.46-1.24,12.48,.01l-.9,2.89Z"/></g><g id="e"><path class="ae" d="M559.17,132.01c4.84,4.56,7.43,10.96,9.69,17.21,11.38,31.59,17.54,65.23,16.31,98.79-18.99-2.08-37.78-6-56.02-11.68-7.74-2.41-15.85-5.47-20.66-12-5.2-7.06-5.34-16.52-5.28-25.29l.21-28.04c.05-6.45,.13-13.08,2.51-19.08,2.76-6.95,8.4-12.43,14.77-16.34,6.2-3.8,13.53-6.93,20.46-9.16,6.17-1.98,13.5,1.33,18,5.58Z"/></g><g id="f"><path class="q" d="M610.71,281.44c5.89,16.15,11.79,32.3,17.22,48.61,1.79,5.38,3.55,11.14,2.12,16.63-1.91,7.35-8.96,12.11-15.87,15.26-15.01,6.86-31.64,9.37-48.11,10.48-6.6,.44-14.17,.29-18.57-4.65-4.19-4.71-3.67-12.26-.43-17.67,3.24-5.41,8.59-9.16,13.87-12.62,5.27-3.46,10.75-6.93,14.44-12.05,6.58-9.11,6.16-21.3,5.97-32.53-.25-14.81-.21-30.17,1.93-44.86,.66-4.56,2.42-10.14,5.07-11.85,4.48,3.37,11.32,18.48,13.64,23.42,3.33,7.1,6.04,14.47,8.73,21.84Z"/><path class="w" d="M544.35,372.5c-5.72-.06-11.7-2.07-15.26-6.55-3.56-4.48-3.85-11.69,.3-15.63,1.02,.63,.9,2.11,.77,3.31s.19,2.78,1.38,2.92c1.22,.14,1.89-1.42,1.93-2.65,.05-1.23,.04-2.74,1.12-3.34,1.34,2.31,2.04,4.98,2,7.65,1.07-2.37,2.34-4.65,3.81-6.79,1.31,2.55,1.74,5.54,1.21,8.35,1.09-2.87,2.75-5.52,4.87-7.74,1.2,.82,1.36,2.53,1.19,3.98s-.53,2.97,.05,4.31c.82,1.9,3.19,2.59,5.26,2.59,3.37,0,11.47-.19,7.08,5.24-3.25,4.01-11,4.41-15.72,4.36Z"/></g><g id="g"><path class="s" d="M561.29,766.41c.37-1.78,1.94-3.05,3.75-3.05h17.96c8.09,0,15.59,4.26,19.73,11.22l3.33,8.44v6.22h-48.53v-4.76l3.75-18.06Z"/><path class="s" d="M521.2,766.41c-.37-1.78-1.94-3.05-3.75-3.05h-17.96c-8.09,0-15.59,4.26-19.73,11.22l-3.33,8.44v6.22h48.53v-4.76l-3.75-18.06Z"/><path class="y" d="M584.68,720.17l-22.34,1.46,2.02,31.15c6.35,.2,12.7,.45,19.03,.82l1.3-33.43Z"/><path class="ab" d="M564.36,752.78l.69,10.58h17.96l.38-9.76c-6.33-.37-12.67-.62-19.03-.82Z"/><path class="y" d="M518.87,720.17l-22.34,1.46,1.86,28.68c6.41,.53,12.83,.91,19.27,1.19l1.22-31.32Z"/><path class="ab" d="M498.39,750.3l.85,13.06h17.96l.46-11.87c-6.44-.28-12.86-.66-19.27-1.19Z"/><rect class="r" x="560.87" y="699.05" width="25.85" height="45.49"/><rect class="r" x="494.77" y="699.05" width="25.85" height="45.49"/><path class="q" d="M467.02,436.25c-4.81,18.54-2.4,38.1,.05,57.1,8.32,64.6,11.95,147.17,20.27,211.77,.89,6.93,1.93,14.21,6.18,19.75,3.25,4.24,8.43,7.11,13.77,7,6.36-.13,12.23-4.55,14.79-10.37,2.16-4.93,2.14-10.5,2.1-15.88-.61-81.76,7.26-181.5,14.2-262.97,.88-10.33,1.58-21.62-4.37-30.11-7.63-10.88-27.2-18.2-39.37-12.45-14.17,6.69-23.77,21.33-27.62,36.15Z"/><path class="q" d="M604.71,436.25c6.01,18.19,4.86,37.86,3.66,56.98-4.11,65.01-12.91,147.98-17.02,212.98-.44,6.97-1,14.31-4.88,20.11-2.97,4.44-7.95,7.64-13.29,7.88-6.35,.28-12.5-3.74-15.43-9.39-2.48-4.78-2.82-10.34-3.13-15.71-4.7-81.62-8.49-180.99-20.71-261.83-1.55-10.25-2.98-21.47,2.41-30.33,6.91-11.35,25.96-19.92,38.48-14.98,14.58,5.76,25.11,19.74,29.91,34.28Z"/><rect class="x" x="520.18" y="173.49" width="29.4" height="48.5"/><path class="s" d="M518.86,212.28h31.25c2.12,0,3.84,1.72,3.84,3.84v8.19h-38.93v-8.19c0-2.12,1.72-3.84,3.84-3.84Z"/><path class="s" d="M482.5,237.84c3.31,33.5,6.63,67.04,7.49,100.69,.43,16.63,.22,15.55-4.2,31.59-5.71,20.73-22.72,40.57-20.09,61.91,0,0,73.11,21.49,138.45-2.23,2.56-22.6-7.28-40.79-13.72-61.31-4.99-15.87-5.8-14.77-5.97-31.41-.34-33.66,1.77-67.3,3.88-100.89l-34.4-11.88h-38.93l-32.52,13.53Z"/><rect class="v" x="594.55" y="445.65" width=".85" height="39.39" transform="translate(-67.14 101.83) rotate(-9.26)"/><rect class="v" x="457.93" y="465.67" width="42" height=".85" transform="translate(-16.96 914.1) rotate(-86.32)"/><rect class="q" x="557.54" y="783.01" width="48.53" height="6.22"/><rect class="q" x="476.42" y="783.01" width="48.53" height="6.22"/><rect class="v" x="571.72" y="765.77" width="15.43" height=".85" transform="translate(-218.04 230.62) rotate(-19.02)"/><rect class="v" x="577.44" y="767.07" width="15.43" height=".85" transform="translate(-218.15 232.56) rotate(-19.02)"/><rect class="v" x="504.04" y="758.48" width=".85" height="15.43" transform="translate(-384.48 992.71) rotate(-70.93)"/><rect class="v" x="498.32" y="759.78" width=".85" height="15.43" transform="translate(-389.58 988.12) rotate(-70.93)"/></g><g id="h"><path class="aa" d="M558.31,284.6c2.65-12.56,26.32-3.03,32.8,8.05,1.25,2.13,2.67,4.68,5.12,4.94,2.68,.29,4.64-2.31,6.44-4.33,2.85-3.2,6.9-5.6,11.19-5.51s8.61,3.19,9.18,7.44c.71,5.24-3.91,9.52-8.13,12.71-5.92,4.49-12.52,9.04-19.95,8.97-5.64-.06-10.87-2.81-15.77-5.62-6-3.44-11.99-7.16-16.46-12.44-4.47-5.27-5.85-7.44-4.42-14.21Z"/><g><rect class="q" x="618.32" y="266.82" width="2.55" height="42.21" transform="translate(-39.21 106.88) rotate(-9.56)"/><path class="w" d="M613.16,287.05c-.17-1.76-.39-3.66,.52-5.17,.69-1.14,1.95-1.86,3.25-2.15s2.66-.17,3.98,.04c2.05,.33,4.23,1.02,5.39,2.75,1.21,1.79,.94,4.29-.17,6.14-1.11,1.86-2.93,3.18-4.79,4.28-1.39,.82-2.84,1.56-4.4,1.95-6.54,1.67-3.45-4.42-3.79-7.85Z"/><path class="q" d="M614.7,268.76c-7.54,0-13.68-6.14-13.68-13.68s6.13-13.68,13.68-13.68,13.68,6.14,13.68,13.68-6.13,13.68-13.68,13.68Zm0-24.8c-6.13,0-11.12,4.99-11.12,11.12s4.99,11.12,11.12,11.12,11.12-4.99,11.12-11.12-4.99-11.12-11.12-11.12Z"/><circle class="t" cx="614.7" cy="255.08" r="7.97"/></g></g><g id="i"><path class="aa" d="M589.81,355.77l-3.35-17.51c-1.67-8.7-3.34-17.51-2.78-26.35,.32-5.1,1.38-10.15,1.38-15.25,0-5.11-1.23-10.49-4.79-14.16-5.25-5.4-13.78-5.55-21.28-4.78-5.84,.6-11.84,1.6-16.81,4.73-9.36,5.9-12.82,17.77-14.38,28.73-1.85,12.95-1.78,27.19,5.84,37.82,5.43,7.59,14.48,12.46,23.8,12.81s26.37,1.1,32.37-6.05"/><path class="y" d="M594.39,408.66c.55,3.49,1.77,6.88,3.58,9.92,.73,1.22,1.57,2.41,2.73,3.22s2.7,1.2,4.03,.7c1.32-.49,2.22-1.77,2.59-3.13,.37-1.36,.28-2.8,.12-4.19-.39-3.36-1.17-6.67-2.33-9.85-.98-2.68-3.53-5.83-6.82-5.01-3.79,.95-4.41,5.11-3.9,8.33Z"/><path class="y" d="M564.61,407.36c.55,3.49,1.77,6.88,3.58,9.92,.73,1.22,1.57,2.41,2.73,3.22s2.7,1.2,4.03,.7c1.32-.49,2.22-1.77,2.59-3.13,.37-1.36,.28-2.8,.12-4.19-.39-3.36-1.17-6.67-2.33-9.85-.98-2.68-3.53-5.83-6.82-5.01-3.79,.95-4.41,5.11-3.9,8.33Z"/><path class="ab" d="M582.61,380.79c.58,4.89,.65,9.95,2.59,14.47s6.44,8.44,11.32,7.79c3.38-.46,6.18-3.03,7.74-6.06,1.55-3.03,2.03-6.49,2.31-9.88,.63-7.66,.35-15.39-.82-22.98-1.07-6.91-2.96-13.84-6.91-19.61-5.81-8.48-18.1-14.62-27.53-7.76-8.37,6.1,2.75,17.51,5.68,23.95,2.89,6.35,4.81,13.15,5.62,20.08Z"/><path class="ab" d="M559.37,386.69c.58,4.89,.65,9.95,2.59,14.47,1.94,4.52,6.44,8.44,11.32,7.79,3.38-.46,6.18-3.03,7.74-6.06,1.55-3.03,2.03-6.49,2.31-9.88,.63-7.66,.35-15.39-.82-22.98-1.07-6.91-2.96-13.84-6.91-19.61-5.81-8.48-18.1-14.62-27.53-7.76-8.37,6.1,2.75,17.51,5.68,23.95,2.89,6.35,4.81,13.15,5.62,20.08Z"/><path class="t" d="M569.02,344.62c-4.62-10.21-3.76-21.78-2.48-32.76l.23-1.92c1.21-10.25,2.46-20.86-.5-30.71l.82-.25c3.01,10.02,1.75,20.71,.53,31.05l-.23,1.92c-1.26,10.86-2.12,22.3,2.41,32.31l-.78,.35Z"/><circle class="aa" cx="532.33" cy="329.59" r="13.34"/><path class="w" d="M529.07,338.98c-.02,.34-.06,.71-.28,.97-.48,.57-1.49,.16-1.81-.51s-.22-1.46-.26-2.2-.36-1.59-1.07-1.8l-.28,4.24c-.04,.67-.2,1.5-.84,1.71-.49,.16-1.02-.16-1.28-.6s-.31-.97-.35-1.48l-.23-2.78c-.02-.18-.04-.38-.18-.5-.2-.17-.52-.05-.67,.16s-.16,.49-.17,.74l-.12,3.31c-.03,.69-.18,1.55-.85,1.72-.59,.15-1.15-.41-1.29-1.01s.02-1.21,.05-1.82c.06-1.14-.3-2.29-1-3.18l-.71,4.63c-.05,.33-.13,.7-.41,.88-.33,.21-.81,.03-1.04-.3s-.28-.74-.31-1.13c-.17-1.85-.2-3.71-.11-5.57,.09-1.7,.31-3.44,1.12-4.94,1.11-2.03,3.28-3.38,5.56-3.76s4.66,.15,6.72,1.2c2.06,1.05,3.83,2.61,5.38,4.34,.48,.53,.95,1.34,.51,1.9-.37,.48-1.12,.38-1.7,.2-1-.31-3.19-1.78-3.93-.45-.38,.68-.19,2.13-.25,2.91l-.21,3.12Z"/></g><g id="j"><path class="w" d="M573.98,305.11c.6-.91,1.24-1.86,2.31-2.25,.6-.22,1.3-.19,1.82,.19,.97,.71,.77,2.05,.52,3.16l-3.15,13.52,17.01-18.07c.68-.72,1.55-1.51,2.56-1.1,.57,.23,.92,.8,1,1.41,.15,1.15-.49,2.13-1.1,3.04l-9.39,14.04,10.03-10.11c.82-.83,2.3-.43,2.5,.72,.09,.54,.07,1.11-.06,1.65-.31,1.33-1.14,2.47-1.94,3.57l-8.01,10.96c.59-.17,5.01-4.49,5.7-4.86,1.66-.91,3.51,.82,2.68,2.52-.45,.93-4.68,5.81-5.17,6.43,.42-1.07,2.12-1.12,2.84-.22s.57,2.25-.05,3.22-1.6,1.63-2.56,2.27l-7.29,4.84c-4.78,3.17-9.73,6.42-15.73,6.51-2.71,.04-5.42-.73-7.52-2.45-5.91-4.86-4.28-13.45-.52-18.87,4.6-6.64,9.06-13.37,13.52-20.11Z"/><g><path class="s" d="M458.66,259.47c-6.11,11.99-7.5,25.82-7.62,39.27-.13,13.46,.89,26.99-.85,40.33-.93,7.12-2.64,14.23-2.19,21.4s3.59,14.7,9.92,18.08c6.13,3.28,13.6,1.97,20.41,.58l59.35-12.11c11.55-2.36,24.21-5.4,31.09-14.98,3.15-4.39,4.74-9.99,3.81-15.31-.93-5.32-4.53-10.22-9.55-12.21-5.25-2.08-11.15-.92-16.67,.28-17.78,3.85-35.55,7.69-53.33,11.54,3.46-20.49,5.59-41.2,6.37-61.96,.35-9.42,.73-32.08-10.45-36.78-11.1-4.66-26.23,13.87-30.31,21.86Z"/><path class="v" d="M467.04,381.03c-3.3,0-6.44-.56-9.32-2.1-5.82-3.11-9.61-10-10.15-18.43-.34-5.31,.52-10.65,1.34-15.81,.3-1.86,.6-3.78,.85-5.67,1.22-9.4,1.07-19.06,.93-28.4-.06-3.89-.12-7.92-.08-11.88,.11-11.58,1.08-26.53,7.67-39.46,4.18-8.21,19.49-26.83,30.85-22.06l-.33,.79c-5.87-2.47-12.67,1.96-17.34,6.11-5.65,5.02-10.4,11.58-12.42,15.55-6.51,12.77-7.47,27.6-7.58,39.08-.04,3.95,.02,7.97,.08,11.86,.14,9.38,.29,19.07-.94,28.53-.25,1.9-.55,3.83-.85,5.69-.82,5.12-1.66,10.41-1.33,15.62,.52,8.14,4.14,14.77,9.7,17.73,5.81,3.1,12.84,2.02,20.13,.54l59.36-12.11c12.47-2.54,24.21-5.59,30.83-14.81,3.25-4.52,4.61-9.98,3.73-14.99-.93-5.35-4.58-10.02-9.29-11.89-5.31-2.11-11.47-.77-16.42,.3l-53.94,11.67,.1-.62c2.63-15.54,4.5-31.4,5.58-47.12l.85,.06c-1.06,15.54-2.91,31.21-5.49,46.58l52.71-11.41c5.07-1.1,11.37-2.46,16.92-.26,4.98,1.98,8.83,6.9,9.81,12.54,.91,5.23-.5,10.92-3.88,15.63-6.79,9.46-19.21,12.67-31.35,15.15l-59.36,12.11c-3.91,.8-7.74,1.48-11.38,1.48Z"/></g></g><g id="k"><g><g><circle class="t" cx="577.78" cy="239.54" r="10.34"/><circle class="t" cx="542.07" cy="243.46" r="10.34" transform="translate(214.92 739.53) rotate(-80.78)"/><circle class="y" cx="542.07" cy="243.46" r="6.08"/><circle class="y" cx="577.78" cy="239.54" r="6.08"/><path class="t" d="M583.7,252.18c-1.91-5.69-5.74-10.75-10.96-13.67-15.16-8.48-34.16,3.74-33.29,20.67,10.91-11.77,29.24-10.9,44.25-7Z"/><path class="w" d="M584.78,256.6c0-.06-.02-.13-.03-.19-.23-1.44-.58-2.85-1.04-4.24-15-3.9-33.33-4.77-44.25,7,.01,.24,.01,.48,.03,.72,0,.06,.01,.12,.02,.17,.07,.7,.16,1.4,.28,2.09,1.31,7.54,3.97,15.17,9.78,20.22,4.85,4.21,13.26,6.68,19.48,5.08,4.77-1.23,10.69-5.57,13.25-9.77,3.55-5.83,3.22-12.29,2.7-19.07-.05-.67-.12-1.34-.22-2Z"/><path class="w" d="M541.01,263.54c-1.24-.88-3.07-.55-4.18,.48s-1.59,2.6-1.64,4.12c-.05,1.63,.37,3.29,1.34,4.6,.96,1.31,2.5,2.23,4.12,2.29s3.29-.8,4.04-2.24"/><path class="w" d="M590.88,264.21c-.3-1.49-1.03-2.96-2.3-3.79s-3.13-.85-4.2,.22l-2.1,9.74c.98,1.3,2.77,1.87,4.36,1.54,1.59-.33,2.95-1.49,3.68-2.95s.87-3.16,.55-4.76Z"/></g><path class="ad" d="M551.79,260.54l-.55-.65c2.32-1.94,5.59-2.72,8.54-2.03l-.19,.83c-2.69-.63-5.68,.08-7.79,1.86Z"/><path class="ad" d="M578.77,258.42c-2.33-1.24-5.17-1.36-7.59-.34l-.33-.79c2.66-1.12,5.77-.98,8.32,.37l-.4,.75Z"/><path class="x" d="M567.54,272.27c-.71,0-1.44-.12-2.17-.37-1.16-.4-2.32-1.1-3.54-2.16l1.12-1.29c1.05,.91,2.02,1.51,2.97,1.84,1.11,.38,2.25,.37,3.14-.02,.95-.41,1.63-1.3,1.69-2.2l1.7,.12c-.11,1.54-1.18,2.97-2.71,3.64-.68,.29-1.42,.44-2.2,.44Z"/><rect class="x" x="565.84" y="259.77" width="1.7" height="2.21" transform="translate(-49.83 165.5) rotate(-15.92)"/></g></g><g id="l"><path class="w" d="M554.81,171.95c1.61-.98,3.25-1.98,5.08-2.44s3.92-.28,5.39,.9c1.5,1.2,2.11,3.23,2.21,5.15,.18,3.23-.89,6.55-3.06,8.96-2.17,2.41-5.44,3.83-8.67,3.6-.54-.04-1.11-.13-1.52-.49-.83-.72-.6-2.03-.3-3.08l2.8-9.86"/><path class="w" d="M516.2,144.57c-4.54,3.97-6.02,10.03-6.61,15.77-.75,7.33-.41,14.75,1,21.99,1.05,5.37,2.71,10.7,5.71,15.41,2.99,4.71,7.4,8.78,12.89,10.87,5.49,2.09,12.08,1.99,17.13-.88,6.26-3.57,9.12-10.52,10.83-17.1,2.47-9.49,3.47-19.31,2.96-29.06-.26-4.97-.98-10.09-3.72-14.39-3.66-5.74-11.19-9.46-18.45-8.99-7.05,.46-16.42,1.73-21.75,6.39Z"/><g><circle class="ad" cx="521.32" cy="174.81" r="3.26"/><path class="ad" d="M515.16,174.89l-.82-1.25c3.67-2.42,8.45-2.84,12.49-1.1l-.59,1.37c-3.52-1.52-7.87-1.13-11.08,.98Z"/></g><g><circle class="ad" cx="550.07" cy="174.81" r="3.26"/><path class="ad" d="M556.23,174.89c-3.2-2.11-7.55-2.49-11.08-.98l-.59-1.37c4.04-1.73,8.82-1.31,12.49,1.1l-.82,1.25Z"/></g><rect class="x" x="535.26" y="176.62" width="1.49" height="13.29" transform="translate(-10.01 32.42) rotate(-3.43)"/><path class="x" d="M535.6,199.04c-2.64,0-5.25-1.14-7.05-3.07l1.1-1.01c1.56,1.68,3.85,2.67,6.14,2.59,2.29-.06,4.54-1.14,6-2.9l1.15,.96c-1.74,2.08-4.4,3.37-7.11,3.44-.08,0-.16,0-.23,0Z"/><path class="y" d="M511.34,218.64c.37,19.85,.82,40.16,7.83,58.74-17.98-3.14-33.24-18.29-36.51-36.25-1.95-10.69,.03-21.72,3.12-32.13,3.09-10.41,7.29-20.49,9.95-31.02,3.64-14.44,4.7-30.42,14.27-41.84,5-5.97,12.17-10.16,19.88-11.27s15.89,.97,21.94,5.88c9.24,7.49,12.47,20.16,13.23,32.03,.1,1.6,.14,3.32-.69,4.69-1.11,1.82-2.36,1.61-4.45,2.04-8.56,1.76-14.18,.14-21.25-1.32-7.07-1.47-23.27-12.18-23.27-12.18,0,0-4.01,26.5-4.2,39.87-.11,7.59,.03,15.17,.17,22.76Z"/><path class="ae" d="M564.91,164.73c-18.88,0-37.74-9.73-48.56-25.21l.61-.43c11.11,15.9,30.79,25.65,50.2,24.84l.03,.75c-.76,.03-1.52,.05-2.28,.05Z"/><path class="ae" d="M567.06,156.63c-15.85-2.17-30.85-10.44-41.16-22.67l.57-.48c10.19,12.1,25.02,20.27,40.69,22.41l-.1,.74Z"/></g><g id="m"><rect class="x" x="401.41" y="301.13" width="29.4" height="48.5"/><polygon class="x" points="368.41 528.03 393.89 764.5 409.07 764.5 415.15 528.03 368.41 528.03"/><polygon class="x" points="421.84 528.03 437.62 764.5 452.8 764.5 468.58 528.03 421.84 528.03"/><polygon class="s" points="369.75 540.43 467.75 540.43 468.58 528.03 368.41 528.03 369.75 540.43"/><path class="ab" d="M363.31,518.36h110.61v4.02c0,3.12-2.53,5.65-5.65,5.65h-99.31c-3.12,0-5.65-2.53-5.65-5.65v-4.02h0Z"/><path class="aa" d="M383.09,359.61c-15.57,5.22-30.16,15.82-36.21,31.09-3.77,9.51-3.98,20-3.99,30.22-.02,26.54,1.1,53.53,9.66,78.65,3.11,9.12,7.96,18.7,16.88,22.33,6.32,2.58,13.45,1.63,20.22,.82,25.29-3.03,50.87-3.63,76.28-1.8,7.09,.51,15.54,.62,19.68-5.15,2.21-3.08,2.53-7.08,2.74-10.87,1.99-35.58,1.36-71.47-4.86-106.56-1.83-10.34-4.39-21.08-11.36-28.94-20.06-22.61-63.68-18.29-89.02-9.8Z"/><path class="aa" d="M398.87,339.76h39.61c2.9,0,5.26,2.36,5.26,5.26v15.88h-50.13v-15.88c0-2.9,2.36-5.26,5.26-5.26Z"/><g><path class="aa" d="M328.86,395.88c-13.67,21.79-15.35,50.61-4.3,73.83,8.86,18.64,26.85,33.9,47.45,35.01,11.2,.6,23.29-3.6,29.32-13.06,4.29-6.73,5-15.07,5.53-23.04,.68-10.3,.79-21.91-6.39-29.32-5.6-5.78-14.1-7.32-21.83-9.54-7.73-2.22-16.08-6.33-18.32-14.05-1.62-5.58,.46-11.53,2.91-16.8,3.45-7.42,7.71-14.46,12.66-20.97,2.64-3.47,5.48-6.8,8.49-9.95,2.05-2.14,7.14-4.9,3.48-7.19-4.54-2.85-17.26,2.72-21.7,4.47-7.09,2.8-13.79,6.63-19.8,11.32-6.88,5.37-12.87,11.89-17.51,19.29Z"/><path class="v" d="M374.14,505.21c-.71,0-1.43-.02-2.15-.06-19.35-1.04-38.12-14.88-47.81-35.25-11.07-23.27-9.37-52.41,4.33-74.24,4.61-7.35,10.53-13.87,17.61-19.4l.52,.67c-7,5.46-12.85,11.92-17.41,19.18-13.55,21.59-15.23,50.41-4.28,73.42,9.56,20.1,28.04,33.75,47.09,34.77,12.18,.66,23.54-4.4,28.94-12.86,4.08-6.4,4.89-14.13,5.46-22.83,.67-10.2,.8-21.7-6.27-29-4.68-4.83-11.52-6.67-18.13-8.46-1.18-.32-2.36-.64-3.51-.97-10.46-3-16.72-7.83-18.61-14.34-1.71-5.89,.67-12.23,2.93-17.1l.77,.36c-2.34,5.03-4.51,10.92-2.89,16.5,1.8,6.21,7.87,10.85,18.03,13.76,1.15,.33,2.32,.65,3.5,.97,6.72,1.82,13.67,3.69,18.52,8.69,7.32,7.55,7.2,19.26,6.51,29.65-.58,8.82-1.41,16.66-5.6,23.24-5.24,8.22-15.9,13.31-27.55,13.31Z"/></g><g><path class="aa" d="M512.58,395.88c13.67,21.79,15.35,50.61,4.3,73.83-8.86,18.64-26.85,33.9-47.45,35.01-11.2,.6-23.29-3.6-29.32-13.06-4.29-6.73-5-15.07-5.53-23.04-.68-10.3-.79-21.91,6.39-29.32,5.6-5.78,14.1-7.32,21.83-9.54,7.73-2.22,16.08-6.33,18.32-14.05,1.62-5.58-.46-11.53-2.91-16.8-3.45-7.42-7.71-14.46-12.66-20.97-2.64-3.47-5.48-6.8-8.49-9.95-2.05-2.14-7.14-4.9-3.48-7.19,4.54-2.85,17.26,2.72,21.7,4.47,7.09,2.8,13.79,6.63,19.8,11.32,6.88,5.37,12.87,11.89,17.51,19.29Z"/><path class="v" d="M467.3,505.21c-11.66,0-22.31-5.09-27.55-13.31-4.19-6.57-5.01-14.41-5.6-23.24-.69-10.39-.81-22.1,6.51-29.65,4.84-5,11.8-6.87,18.52-8.69,1.18-.32,2.35-.63,3.5-.97,10.16-2.92,16.22-7.55,18.03-13.76,1.62-5.59-.55-11.48-2.89-16.5l.77-.36c2.26,4.87,4.64,11.21,2.94,17.1-1.89,6.51-8.15,11.34-18.61,14.34-1.16,.33-2.33,.65-3.51,.97-6.61,1.79-13.45,3.63-18.13,8.46-7.08,7.3-6.95,18.8-6.27,29,.58,8.71,1.38,16.43,5.46,22.83,5.4,8.47,16.76,13.52,28.94,12.86,19.05-1.02,37.53-14.67,47.09-34.77,10.95-23.01,9.27-51.84-4.28-73.42-4.56-7.26-10.42-13.71-17.41-19.18-5.99-4.68-12.61-8.47-19.69-11.26l.31-.79c7.16,2.82,13.85,6.65,19.9,11.38,7.07,5.53,13,12.05,17.61,19.4,13.7,21.83,15.4,50.97,4.33,74.24-9.69,20.38-28.46,34.21-47.81,35.25-.72,.04-1.44,.06-2.15,.06Z"/></g><rect class="v" x="420.99" y="339.71" width=".85" height="180.44" transform="translate(-13.69 13.87) rotate(-1.85)"/><rect class="v" x="379.26" y="468.13" width="55.8" height=".85" transform="translate(-88.72 841.95) rotate(-85.99)"/><rect class="v" x="434.13" y="440.51" width=".85" height="55.92" transform="translate(-49.49 51.34) rotate(-6.4)"/><polygon class="s" points="368.41 528.03 384.08 736.88 416.09 740.58 415.15 528.03 368.41 528.03"/><polygon class="s" points="421.84 528.03 427.88 740.58 462.48 736.88 468.58 528.03 421.84 528.03"/><path class="aa" d="M393.45,754.33h14.61c3.07,0,5.7,2.19,6.25,5.21l2.97,16.17h-45.22c0-11.81,9.57-21.38,21.38-21.38Z"/><rect class="y" x="372.06" y="775.71" width="45.22" height="13.52"/><path class="aa" d="M454.39,754.33h-14.61c-3.07,0-5.7,2.19-6.25,5.21l-2.97,16.17h45.22c0-11.81-9.57-21.38-21.38-21.38Z"/><rect class="y" x="430.55" y="775.71" width="45.22" height="13.52" transform="translate(906.33 1564.95) rotate(-180)"/><rect class="u" x="384.52" y="756.44" width="15.31" height=".85"/><rect class="u" x="380.58" y="759.7" width="15.31" height=".85"/><rect class="u" x="376.87" y="763.44" width="15.31" height=".85"/><rect class="u" x="449.05" y="756.44" width="15.31" height=".85"/><rect class="u" x="452.99" y="759.7" width="15.31" height=".85"/><rect class="u" x="456.7" y="763.44" width="15.31" height=".85"/><rect class="u" x="430.55" y="784.71" width="45.22" height=".85"/><rect class="u" x="372.06" y="784.71" width="45.22" height=".85"/><path class="v" d="M418.12,339.87l2.95,5.98,3.05-1.31-2.9-6.01-3.11,1.33Zm2.5,1.55c-.46,.2-1-.02-1.19-.48s.02-1,.48-1.19,1,.02,1.19,.48-.02,1-.48,1.19Z"/></g><g id="n"><g><path class="y" d="M353.55,270.97c3.66-15.37,24.41-16.38,38.62-11.98-1.64-7.06-5.86-13.54-11.89-17.54-7.16-4.74-16.79-5.71-24.57-2.07-5.95,2.78-10.55,8.01-13.35,13.94-2.81,5.94-3.92,12.56-4.12,19.12-.63,21.63,9.08,43.34,25.62,57.29-.01-.06-.03-.13-.05-.19-14.82-14.69-13.9-38.98-10.27-58.57Z"/><path class="ae" d="M353.55,270.97c-3.63,19.6-4.56,43.89,10.27,58.57-1.7-7.31-4.34-14.43-5.16-21.89-.82-7.52,.51-15.76,5.78-21.2,4.08-4.2,9.86-6.14,15.2-8.54,5.34-2.4,10.81-5.83,12.74-11.35l.44-3.6c-.12-1.34-.35-2.67-.66-3.98-14.21-4.4-34.96-3.39-38.62,11.98Z"/><path class="ae" d="M345.19,286.93c-.49-7-.99-14.25,.88-21.21,2.07-7.72,7.22-13.76,13.42-15.77,5.14-1.66,11.23-.75,16.72,2.49,4.25,2.51,8.04,6.19,12.28,11.93l-.63,.47c-4.18-5.65-7.9-9.27-12.05-11.72-5.29-3.13-11.15-4.01-16.08-2.42-5.95,1.92-10.9,7.76-12.9,15.22-1.84,6.84-1.34,14.01-.86,20.95l-.78,.05Z"/><path class="t" d="M390.67,259.43h0c3.21,0,5.81,2.61,5.81,5.81v9.5h-11.63v-9.5c0-3.21,2.61-5.81,5.81-5.81Z" transform="translate(-25.4 492.58) rotate(-62.81)"/></g></g><g id="o"><g><path class="w" d="M396.76,268.87c-4.77,4.16-6.32,10.53-6.93,16.55-.79,7.69-.43,15.48,1.05,23.08,1.1,5.63,2.85,11.23,5.99,16.17,3.14,4.94,7.77,9.22,13.53,11.41,5.76,2.19,12.68,2.09,17.97-.93,6.57-3.75,9.57-11.04,11.37-17.95,2.6-9.96,3.65-20.26,3.1-30.49-.28-5.22-1.03-10.59-3.9-15.1-3.84-6.02-11.75-9.93-19.36-9.44s-17.23,1.82-22.82,6.7Z"/><path class="w" d="M395.57,302.86c-1.31-2.75-5.04-3.89-7.83-2.66-2.79,1.23-4.45,4.42-4.25,7.46s2.06,5.83,4.56,7.57c1.56,1.08,3.43,1.8,5.33,1.67s3.77-1.26,4.47-3.03"/><path class="w" d="M437.24,302.86c1.31-2.75,5.04-3.89,7.83-2.66s4.45,4.42,4.25,7.46c-.2,3.04-2.06,5.83-4.56,7.57-1.56,1.08-3.43,1.8-5.33,1.67s-3.77-1.26-4.47-3.03"/><path class="y" d="M451.19,290.39c-1.06-1.7-1.44-3.71-1.93-5.64-1.75-6.89-5.15-13.45-10.3-18.33-10.08-9.56-26.59-10.34-38.4-3.4-3.52,2.07-6.64,4.85-9.06,8.15-6.02,8.18-7.88,18.99-6.15,28.99,4.08,.44,8.17,.85,12.26,1.21,1.28-4.34,2.13-9.16,4.23-13.37,.71,4.94,3.31,9.25,4.97,14.06,10.48,.65,20.98,.76,31.42-.21,3.46-.32,6.96-.78,10.19-2.08,3.23-1.3,6.2-3.54,7.73-6.67-1.97,.34-3.91-1-4.97-2.69Z"/><g><circle class="ad" cx="402.92" cy="305.29" r="3.42"/><path class="ad" d="M396.46,305.37l-.86-1.31c3.85-2.53,8.87-2.98,13.1-1.16l-.62,1.44c-3.7-1.59-8.26-1.19-11.62,1.03Z"/></g><g><circle class="ad" cx="431.81" cy="305.29" r="3.42"/><path class="ad" d="M438.27,305.37c-3.36-2.22-7.93-2.62-11.62-1.03l-.62-1.44c4.23-1.82,9.25-1.38,13.1,1.16l-.86,1.31Z"/></g><rect class="x" x="417.03" y="306.17" width="1.57" height="9.31" transform="translate(-12.24 17.17) rotate(-2.32)"/><path class="x" d="M418.27,323.85c-.11,0-.22,0-.33,0-2.59-.09-4.99-1.07-7.24-2.06l.64-1.43c2.1,.93,4.35,1.85,6.65,1.93,1.9,.06,4.38-.56,5.65-2.52l1.31,.85c-1.31,2.01-3.84,3.24-6.68,3.24Z"/></g></g><g id="p"><rect class="q" x="-234.31" y="788.38" width="1259.26" height="1.7"/></g></svg>