<svg width="183" height="50" viewBox="0 0 183 50" fill="none" xmlns="http://www.w3.org/2000/svg">
<path d="M173.695 33.4097C173.581 33.537 173.473 33.6324 173.366 33.696C173.258 33.7597 173.132 33.7915 172.98 33.7915C172.847 33.7915 172.721 33.7533 172.581 33.6706C172.449 33.5942 172.29 33.5051 172.126 33.4097C171.955 33.3142 171.753 33.2251 171.525 33.1488C171.297 33.0724 171.025 33.0342 170.709 33.0342C170.165 33.0342 169.741 33.1424 169.431 33.3588C169.121 33.5751 168.925 33.8679 168.849 34.237C168.799 34.4724 168.837 34.6697 168.963 34.8224C169.09 34.9752 169.273 35.1088 169.507 35.2233C169.741 35.3379 170.019 35.4397 170.329 35.5288C170.646 35.6243 170.962 35.7261 171.285 35.8406C171.607 35.9552 171.924 36.0952 172.221 36.2479C172.524 36.4006 172.777 36.6043 172.986 36.8397C173.195 37.0816 173.34 37.3743 173.429 37.7179C173.518 38.0616 173.505 38.4816 173.404 38.9652C173.29 39.5062 173.087 40.0153 172.79 40.4862C172.493 40.9571 172.12 41.3644 171.664 41.7144C171.209 42.0644 170.684 42.338 170.089 42.5417C169.494 42.7453 168.837 42.8471 168.134 42.8471C167.748 42.8471 167.363 42.8089 166.977 42.7326C166.591 42.6562 166.224 42.548 165.876 42.4144C165.528 42.2808 165.212 42.1153 164.921 41.9307C164.63 41.7462 164.383 41.5362 164.187 41.3071L165.307 40.0407C165.389 39.9453 165.496 39.8689 165.623 39.8053C165.749 39.748 165.876 39.7162 166.009 39.7162C166.18 39.7162 166.344 39.7671 166.496 39.8689C166.648 39.9707 166.825 40.0853 167.015 40.2062C167.211 40.3271 167.438 40.4416 167.698 40.5434C167.964 40.6453 168.286 40.6962 168.672 40.6962C169.197 40.6962 169.627 40.588 169.962 40.3716C170.298 40.1553 170.519 39.8116 170.614 39.3407C170.671 39.0671 170.639 38.8443 170.513 38.6725C170.386 38.5007 170.209 38.3607 169.975 38.2461C169.741 38.1316 169.463 38.0361 169.153 37.947C168.843 37.8643 168.52 37.7625 168.198 37.6607C167.869 37.5588 167.559 37.4252 167.261 37.2725C166.964 37.1197 166.711 36.9161 166.502 36.6679C166.294 36.4197 166.148 36.1079 166.066 35.7388C165.984 35.3697 166.003 34.9115 166.116 34.3642C166.211 33.9251 166.395 33.4988 166.667 33.0788C166.945 32.6588 167.299 32.2897 167.729 31.9651C168.16 31.6406 168.666 31.3733 169.235 31.1824C169.804 30.9851 170.431 30.8896 171.114 30.8896C171.493 30.8896 171.86 30.9151 172.214 30.9724C172.562 31.0296 172.891 31.1124 173.189 31.2206C173.492 31.3287 173.764 31.4624 174.017 31.6151C174.27 31.7678 174.479 31.9397 174.663 32.1369L173.682 33.397L173.695 33.4097ZM166.11 31.0296L165.674 33.1169H160.562L159.993 35.847H163.909L163.485 37.8579H159.569L158.987 40.6453H164.098L163.662 42.7326H155.647L158.102 31.0296H166.116H166.11ZM148.961 36.5343H150.125C150.517 36.5343 150.865 36.4834 151.162 36.3943C151.459 36.2988 151.712 36.1715 151.921 36.0061C152.13 35.8406 152.301 35.6434 152.427 35.4206C152.554 35.1979 152.642 34.9624 152.699 34.7015C152.807 34.1861 152.712 33.7851 152.421 33.4988C152.124 33.2124 151.605 33.066 150.858 33.066H149.695L148.967 36.5343H148.961ZM148.569 38.4052L147.664 42.7326H144.773L147.227 31.0296H151.276C152.174 31.0296 152.927 31.1124 153.528 31.2906C154.129 31.4624 154.597 31.7106 154.932 32.016C155.268 32.3278 155.483 32.6906 155.578 33.1169C155.672 33.537 155.666 34.0015 155.559 34.4979C155.476 34.8797 155.35 35.2361 155.173 35.5734C154.996 35.9106 154.768 36.2225 154.496 36.5088C154.224 36.7952 153.908 37.0497 153.547 37.2788C153.186 37.5016 152.794 37.6861 152.358 37.8325C152.535 37.9216 152.693 38.0361 152.832 38.1698C152.971 38.3034 153.085 38.4689 153.167 38.6598L154.964 42.7326H152.351C151.864 42.7326 151.554 42.5608 151.415 42.2171L150.061 38.8189C150.005 38.6661 149.916 38.5643 149.808 38.5007C149.701 38.437 149.53 38.4052 149.309 38.4052H148.575H148.569ZM138.485 40.588C138.871 40.588 139.232 40.5244 139.561 40.4034C139.889 40.2825 140.18 40.1107 140.44 39.888C140.699 39.6652 140.921 39.3852 141.098 39.0607C141.275 38.7361 141.408 38.367 141.496 37.9598L142.951 31.0296H145.842L144.387 37.9598C144.235 38.6789 143.976 39.3343 143.603 39.9325C143.23 40.5307 142.768 41.0462 142.211 41.4853C141.661 41.918 141.028 42.2553 140.313 42.4971C139.605 42.7389 138.833 42.8598 138.004 42.8598C137.176 42.8598 136.455 42.7389 135.841 42.4971C135.234 42.2553 134.74 41.918 134.367 41.4853C133.994 41.0525 133.753 40.5371 133.633 39.9325C133.513 39.3343 133.532 38.6725 133.678 37.9598L135.132 31.0296H138.023L136.575 37.9534C136.486 38.367 136.467 38.7298 136.511 39.0543C136.556 39.3789 136.657 39.6525 136.821 39.8816C136.986 40.1107 137.207 40.2825 137.486 40.4034C137.764 40.5244 138.099 40.588 138.485 40.588ZM134.607 31.0296L134.158 33.1806H130.654L128.655 42.7326H125.764L127.763 33.1806H124.258L124.707 31.0296H134.601H134.607ZM121.38 39.7034C121.45 39.7034 121.513 39.7162 121.576 39.7352C121.639 39.7607 121.696 39.7989 121.747 39.8625L122.652 40.9953C122.019 41.6126 121.298 42.0771 120.476 42.3889C119.653 42.7008 118.73 42.8598 117.698 42.8598C116.756 42.8598 115.94 42.7071 115.25 42.4017C114.567 42.0962 114.017 41.6826 113.606 41.148C113.194 40.6134 112.929 39.9834 112.802 39.2516C112.676 38.5198 112.701 37.7307 112.885 36.8716C113.068 35.9997 113.397 35.1979 113.865 34.4661C114.339 33.7342 114.915 33.1042 115.598 32.576C116.281 32.0478 117.053 31.6342 117.914 31.3415C118.774 31.0487 119.685 30.9024 120.646 30.9024C121.114 30.9024 121.545 30.9405 121.943 31.0169C122.342 31.0933 122.702 31.2015 123.031 31.3415C123.36 31.4751 123.657 31.6406 123.917 31.8315C124.176 32.0224 124.404 32.2324 124.587 32.4615L123.354 33.6897C123.278 33.766 123.189 33.8297 123.088 33.8933C122.987 33.957 122.86 33.9888 122.709 33.9888C122.607 33.9888 122.512 33.9697 122.43 33.9251C122.348 33.8806 122.259 33.8297 122.171 33.7661C122.082 33.7024 121.981 33.6388 121.88 33.5624C121.772 33.4924 121.639 33.4224 121.488 33.3588C121.33 33.2951 121.146 33.2442 120.931 33.206C120.716 33.1615 120.457 33.1424 120.153 33.1424C119.628 33.1424 119.134 33.2251 118.66 33.4033C118.192 33.5751 117.768 33.8233 117.389 34.1479C117.009 34.4724 116.686 34.867 116.414 35.3252C116.142 35.7834 115.946 36.3052 115.826 36.8779C115.7 37.4761 115.674 38.0107 115.75 38.4752C115.826 38.9398 115.978 39.3343 116.212 39.6525C116.446 39.9707 116.743 40.2125 117.104 40.378C117.471 40.5434 117.876 40.6262 118.331 40.6262C118.59 40.6262 118.837 40.6134 119.059 40.588C119.28 40.5625 119.489 40.5244 119.691 40.4671C119.887 40.4098 120.083 40.3334 120.267 40.238C120.457 40.1425 120.646 40.028 120.849 39.888C120.931 39.8371 121.013 39.7862 121.102 39.7543C121.19 39.7225 121.273 39.7034 121.361 39.7034H121.38ZM110.569 42.7326H107.666L110.12 31.0296H113.024L110.569 42.7326ZM101.137 36.7697H102.643C103.396 36.7697 103.971 36.6043 104.37 36.267C104.768 35.9297 105.034 35.4588 105.161 34.8543C105.218 34.587 105.224 34.3451 105.186 34.1224C105.148 33.8997 105.059 33.7151 104.92 33.556C104.781 33.397 104.585 33.276 104.338 33.1933C104.092 33.1106 103.782 33.066 103.421 33.066H101.916L101.137 36.7761V36.7697ZM160.486 11.3847L159.835 14.4775H152.37L151.523 18.5249H157.241L156.615 21.4967H150.896L150.03 25.6268H154.736L153.914 28.7196H145.14L148.777 11.3847H160.486ZM145.905 20.0458C144.786 25.385 139.94 28.7196 134.652 28.7196H127.586L130.135 16.5521H134.38L132.476 25.6268H135.297C138.707 25.6268 140.908 23.2722 141.585 20.0458C142.249 16.8894 141.104 14.4775 137.637 14.4775H130.572L131.223 11.3847H138.289C143.489 11.3847 147.038 14.6557 145.905 20.0458ZM125.182 28.7196H120.937L124.575 11.3847H128.819L125.182 28.7196ZM123.417 11.3847L122.746 14.573H117.629L114.662 28.7196H110.443L113.41 14.573H108.292L108.963 11.3847H123.417ZM65.5989 28.7196H61.3543L64.9916 11.3847H69.2363L65.5989 28.7196ZM55.1107 26.7914L56.243 21.3949H48.8544L47.3173 28.726H43.0726L46.71 11.3911H50.9546L49.4364 18.6394H56.825L58.3432 11.3911H62.5878L59.3553 26.7977H55.1107V26.7914ZM100.296 28.7196H96.0515L97.5887 21.3886H90.2001L88.6629 28.7196H84.4183L88.0556 11.3847H92.3003L90.7821 18.633H98.1706L99.6888 11.3847H103.933L100.296 28.7196ZM77.1815 25.8177C78.219 25.8177 79.1425 25.6523 80.1104 25.2959L80.6607 22.6677H78.8642C78.4214 22.6677 78.0608 22.4449 78.1684 21.9549L78.6301 19.7403H85.0951L83.558 27.0587C81.2364 28.4714 78.8895 28.9169 76.2073 28.9169C71.0455 28.9169 67.6928 25.2514 68.7808 20.0522C69.6095 16.1066 72.3676 13.1411 76.1378 11.8557C79.288 10.7802 84.102 10.812 86.5248 13.5357L84.9307 15.3112C84.4436 15.8521 83.7794 16.043 83.1468 15.6103C81.831 14.7575 80.977 14.5284 79.4019 14.5284C76.0998 14.5284 73.7592 16.9212 73.1014 20.0585C72.4371 23.234 73.7023 25.8305 77.1815 25.8305V25.8177ZM100.714 38.8252L99.8913 42.7389H97.0004L99.4548 31.036H103.845C104.724 31.036 105.458 31.1315 106.046 31.3287C106.635 31.526 107.096 31.7933 107.432 32.1369C107.767 32.4806 107.982 32.8815 108.077 33.3524C108.172 33.817 108.165 34.3197 108.052 34.8606C107.931 35.4461 107.716 35.9806 107.419 36.4643C107.115 36.9543 106.723 37.3679 106.242 37.7179C105.762 38.0679 105.186 38.3352 104.515 38.5325C103.845 38.7298 103.079 38.8252 102.219 38.8252H100.714Z" fill="#D9D9D9"/>
<path d="M34.4758 18.7603C34.7225 15.833 33.0398 12.912 30.054 10.4811H26.1004C29.2633 12.7529 31.0915 15.6166 30.8384 18.5758C30.5095 22.4958 26.6318 25.6395 21.0461 27.1477C21.7356 26.5623 28.9344 24.8823 29.529 17.8439C29.5416 17.6976 29.548 17.5512 29.548 17.4048H27.1884L25.9612 23.2404H23.9433L25.1705 17.3985H22.248L22.5453 15.8775H29.2949C28.7003 13.9684 27.0682 12.0975 24.7909 10.4811H12.386L8.31848 29.6869H24.7467C29.3519 28.1405 33.9381 25.1368 34.4695 18.7603H34.4758ZM18.0413 20.6567L17.3075 24.1568H15.2769L17.0165 15.8712H19.0471L18.3196 19.3331H21.8494L22.1594 17.8503H24.19L23.064 23.234H21.0334L21.5711 20.6567H18.0413Z" fill="#D9D9D9"/>
<path d="M40.6878 10.4747H31.5343C34.9376 13.1793 36.7848 16.5776 36.4938 20.1095C36.1332 24.3732 32.907 27.7014 27.9666 29.6869H36.6203L40.6878 10.4811V10.4747Z" fill="#D9D9D9"/>
<path d="M15.1884 31.7233C20.0403 31.8315 24.4367 31.0996 27.9665 29.6869H24.753C20.5843 31.0869 16.3966 31.2969 15.1947 31.7233H15.1884Z" fill="#D9D9D9"/>
<path d="M15.979 4.86188C21.7355 5.65735 26.7076 7.75738 30.054 10.4747H31.5406C27.8969 7.5792 22.4756 5.4728 15.9853 4.86188H15.979Z" fill="#D9D9D9"/>
<path d="M12.4872 5.82916C17.1936 6.4719 21.6154 8.2283 24.7846 10.4747H26.1004C22.773 8.08193 17.959 6.34463 12.4872 5.82916Z" fill="#D9D9D9"/>
</svg>
