<svg width="87" height="49" viewBox="0 0 87 49" fill="none" xmlns="http://www.w3.org/2000/svg">
<path d="M29.7992 6.6402H7.87791V11.1052H29.7992V6.6402ZM62.5669 21.0654C63.3661 18.0888 65.7637 16.028 68.7322 16.028C71.8149 16.028 74.2126 17.9743 75.1259 21.0654H62.5669ZM79.4645 22.8972C79.4645 16.6005 74.7834 11.9066 68.7322 11.9066C65.0787 11.9066 61.8818 13.7383 59.9409 16.6005V12.25C56.9724 12.3645 54.8031 13.7383 53.6614 16.028V12.479H46.5826V16.9439H49.3228V28.8505H46.5826V33.3154H56.7441V28.8505H54.0039V23.1262C54.0039 19.5771 55.9448 17.5164 59.4842 17.1729C58.4566 18.8902 57.8858 20.8365 57.8858 22.8972C57.8858 29.0795 62.6811 33.8879 68.8464 33.8879C73.185 33.8879 76.8385 31.3692 78.6653 27.2477H73.7559C72.5 28.965 71.0157 29.7664 68.8464 29.7664C65.7637 29.7664 63.3661 27.9346 62.5669 24.8435H79.3504C79.4645 23.9276 79.4645 23.5841 79.4645 22.8972ZM37.3346 29.1939C33.9094 29.1939 31.1692 26.3318 31.1692 22.8972C31.1692 19.4626 33.9094 16.6005 37.2204 16.6005C40.6456 16.6005 43.3858 19.3481 43.3858 23.0117C43.5 26.3318 40.7598 29.1939 37.3346 29.1939ZM26.2598 28.8505L20.3228 23.1262L26.4881 16.8295H28.2007C27.059 18.5467 26.4881 20.6075 26.4881 22.7827C26.4881 24.958 27.1732 27.0187 28.2007 28.736H26.2598V28.8505ZM37.3346 11.9066C34.3661 11.9066 31.7401 13.0514 29.7992 14.9977V12.479H18.496V16.9439H20.2086L15.4133 22.0958L15.2992 22.2103V16.9439H17.1259V12.479H7.87791V16.9439H10.6181V26.4463L10.3897 26.6752C6.73618 29.9953 5.70862 31.7126 5.70862 34.6893C5.70862 39.3832 9.47634 43.0467 14.2716 43.0467C17.0118 43.0467 19.6378 41.7874 21.2362 39.6122C22.2637 38.2383 22.7204 36.8645 22.9488 35.0327H18.1535C17.811 37.0935 16.4409 38.3528 14.3858 38.3528C12.2165 38.3528 10.5039 36.6355 10.5039 34.5748C10.5039 33.0865 11.0748 32.0561 13.2441 29.9953L17.3543 26.1028L20.5511 29.3084H18.2677V33.3154H28.6574V29.5374C30.5984 32.1706 33.7952 33.8879 37.3346 33.8879C43.2716 33.8879 48.1811 28.965 48.1811 23.0117C48.2952 16.715 43.5 11.9066 37.3346 11.9066Z" fill="#D9D9D9"/>
</svg>
