<?xml version="1.0" encoding="UTF-8"?><svg id="a" xmlns="http://www.w3.org/2000/svg" viewBox="0 0 808 646"><defs><style>.d{fill:#fff;}</style></defs><g id="b"><g id="c"><g><path class="d" d="M66.43,223.71c0-10.05,8.17-18.22,18.22-18.22s18.22,8.17,18.22,18.22-8.17,18.22-18.22,18.22-18.22-8.17-18.22-18.22h0Zm60.96,0c0-23.57-19.17-42.74-42.74-42.74s-42.74,19.17-42.74,42.74,19.17,42.74,42.74,42.74,42.74-19.17,42.74-42.74h0Z"/><path class="d" d="M783.48,604.36c0,9.34-7.6,16.93-16.93,16.93H319.35c-9.34,0-16.93-7.59-16.93-16.93v-207.84c0-9.34,7.6-16.93,16.93-16.93h55.72c7.58,0,13.75-6.17,13.75-13.75v-33.89l74.86,45.63c2.16,1.32,4.64,2.02,7.17,2.02h295.7c9.34,0,16.93,7.6,16.93,16.93v207.84h0Zm-696.49-46.71c-9.34,0-16.93-7.6-16.93-16.93v-233.64c4.75,.83,9.62,1.29,14.6,1.29,39.76,0,73.18-27.56,82.23-64.57h436.2c9.34,0,16.93,7.6,16.93,16.93v94.34h-146.14l-88.67-54.04c-4.24-2.58-9.56-2.68-13.89-.25-4.33,2.43-7.02,7.02-7.02,11.99v42.3h-44.95c-22.86,0-41.45,18.59-41.45,41.45v161.13H86.99ZM24.52,223.71c0-33.16,26.98-60.13,60.13-60.13s60.13,26.98,60.13,60.13-26.98,60.13-60.13,60.13-60.13-26.98-60.13-60.13h0Zm43.71-89.96c4.48-6.59,11.23-11.04,19.03-12.53l55.48-10.6-7.54,45.23c-14.12-10.54-31.62-16.79-50.55-16.79-6.96,0-13.73,.86-20.21,2.46,.87-2.72,2.13-5.33,3.78-7.77h0ZM611.9,29.89c6.59,4.48,11.03,11.23,12.52,19.03l4.39,22.94c1.49,7.79-.16,15.71-4.63,22.3-4.48,6.59-11.23,11.04-19.03,12.53l-33.83,6.46,15.53-87.37,2.74-.52c7.8-1.49,15.72,.16,22.31,4.63h0ZM265.82,171.51l-44.23,8.45,15.8-82.98c.29-1.52,.27-3.01,.02-4.45l44.69-8.54-16.28,87.51h0Zm69.49-13.28l-43.63,8.34,15.78-84.82c.16-.89,.22-1.77,.2-2.63l44.14-8.43-16.48,87.55h0Zm70.36-13.44l-44.48,8.5,16.32-86.69c.05-.28,.08-.57,.12-.85l43.94-8.4-15.9,87.44h0ZM561.07,30.7l-15.53,87.37-43.95,8.4,15.53-87.37,43.95-8.4h0Zm-69.73,13.32l-15.53,87.37-44.32,8.47,15.9-87.44,43.95-8.4h0ZM156.26,178.64l11.13-66.76c.34-2.04,.15-4.05-.46-5.88l45.45-8.68-16.68,87.59-32.89,6.28c-1.83-4.38-4.03-8.57-6.54-12.54h0Zm610.29,176.42h-122.02v-94.34c0-22.86-18.59-41.45-41.45-41.45H169.19c-.07-1.43-.18-2.86-.33-4.28l440.89-84.22c14.23-2.71,26.56-10.82,34.71-22.83,8.16-12.01,11.15-26.45,8.44-40.68l-4.39-22.94c-2.71-14.23-10.82-26.56-22.83-34.71-12-8.16-26.45-11.15-40.71-8.43L82.66,97.13c-14.23,2.71-26.56,10.82-34.71,22.83-6.64,9.78-9.86,21.17-9.35,32.78C15.38,167.86,0,194.01,0,223.71c0,32.57,18.5,60.89,45.54,75.04v241.97c0,22.86,18.59,41.45,41.45,41.45h190.91v22.18c0,22.86,18.59,41.45,41.45,41.45h447.2c22.86,0,41.45-18.59,41.45-41.45v-207.84c0-22.86-18.59-41.45-41.45-41.45h0Z"/><path class="d" d="M719.26,428.04H363.13c-6.77,0-12.26,5.49-12.26,12.26s5.49,12.26,12.26,12.26h356.13c6.77,0,12.26-5.49,12.26-12.26s-5.49-12.26-12.26-12.26h0Z"/><path class="d" d="M719.26,486.72H363.13c-6.77,0-12.26,5.49-12.26,12.26s5.49,12.26,12.26,12.26h356.13c6.77,0,12.26-5.49,12.26-12.26s-5.49-12.26-12.26-12.26h0Z"/><path class="d" d="M719.26,545.39H363.13c-6.77,0-12.26,5.49-12.26,12.26s5.49,12.26,12.26,12.26h356.13c6.77,0,12.26-5.49,12.26-12.26s-5.49-12.26-12.26-12.26h0Z"/></g></g></g></svg>