<svg width="34" height="34" viewBox="0 0 34 34" fill="none" xmlns="http://www.w3.org/2000/svg">
<path d="M17 0C21.6942 0 25.9442 1.90306 29.0207 4.9793C32.0969 8.05583 34 12.3058 34 17C34 21.6942 32.0969 25.9442 29.0207 29.0207C25.9442 32.0969 21.6942 34 17 34C12.3058 34 8.05583 32.0969 4.9793 29.0207C1.90306 25.9442 0 21.6942 0 17C0 12.3058 1.90306 8.05583 4.9793 4.9793C8.05583 1.90306 12.3058 0 17 0ZM27.4548 6.54515C24.7794 3.87001 21.0828 2.21493 17 2.21493C12.9172 2.21493 9.22058 3.87001 6.54515 6.54515C3.87001 9.22058 2.21493 12.9172 2.21493 17C2.21493 21.0828 3.87001 24.7794 6.54515 27.4548C9.22058 30.13 12.9172 31.7851 17 31.7851C21.0828 31.7851 24.7794 30.13 27.4548 27.4548C30.13 24.7794 31.7851 21.0828 31.7851 17C31.7851 12.9172 30.13 9.22058 27.4548 6.54515Z" fill="#282828"/>
<path fill-rule="evenodd" clip-rule="evenodd" d="M7.65127 26.1716L7.64451 26.1255C7.20682 23.1508 8.7144 20.3527 11.4391 19.0815C11.7501 18.9363 12.0794 18.8063 12.4231 18.69C13.7725 19.4604 15.335 19.9009 17.0002 19.9009C18.6654 19.9009 20.2279 19.4604 21.5773 18.69C21.921 18.8063 22.2503 18.9363 22.5613 19.0815C25.286 20.3527 26.7933 23.1508 26.3559 26.1255L26.3491 26.1716C26.3199 26.2015 26.2906 26.231 26.2613 26.2606C23.7961 28.7257 20.4871 30.0962 17.0005 30.0962C13.5138 30.0962 10.2048 28.7257 7.73965 26.2606C7.7101 26.231 7.68082 26.2012 7.65183 26.1716H7.65127Z" fill="#282828"/>
<path fill-rule="evenodd" clip-rule="evenodd" d="M17.0001 5.7984C20.3888 5.7984 23.1357 8.54532 23.1357 11.934C23.1357 15.3227 20.3888 18.0696 17.0001 18.0696C13.6114 18.0696 10.8645 15.3227 10.8645 11.934C10.8645 8.54532 13.6114 5.7984 17.0001 5.7984Z" fill="#282828"/>
</svg>
